<?xml version="1.0" encoding="UTF-8" standalone="no"?>
<!-- Created with Inkscape (http://www.inkscape.org/) -->
<svg
   xmlns:dc="http://purl.org/dc/elements/1.1/"
   xmlns:cc="http://creativecommons.org/ns#"
   xmlns:rdf="http://www.w3.org/1999/02/22-rdf-syntax-ns#"
   xmlns:svg="http://www.w3.org/2000/svg"
   xmlns="http://www.w3.org/2000/svg"
   xmlns:sodipodi="http://sodipodi.sourceforge.net/DTD/sodipodi-0.dtd"
   xmlns:inkscape="http://www.inkscape.org/namespaces/inkscape"
   width="297mm"
   height="210mm"
   id="svg2383"
   sodipodi:version="0.32"
   inkscape:version="0.46"
   sodipodi:docname="logo_circuits_transparent_inverted.svg"
   inkscape:output_extension="org.inkscape.output.svg.inkscape"
   inkscape:export-filename="/home/jiffies/images/labor/labor-artwork/logos/labortage/t_shirt_logolabortage_2009/logo_circuits.png"
   inkscape:export-xdpi="90"
   inkscape:export-ydpi="90">
  <sodipodi:namedview
     inkscape:document-units="mm"
     pagecolor="#ffffff"
     bordercolor="#666666"
     borderopacity="1.0"
     inkscape:pageopacity="0.0"
     inkscape:pageshadow="2"
     inkscape:zoom="0.63"
     inkscape:cx="477.54998"
     inkscape:cy="364.00795"
     inkscape:current-layer="layer1"
     id="namedview2387"
     showgrid="true"
     inkscape:window-width="1023"
     inkscape:window-height="692"
     inkscape:window-x="0"
     inkscape:window-y="24"
     showguides="true"
     inkscape:guide-bbox="true">
    <inkscape:grid
       enabled="true"
       visible="true"
       id="grid2434"
       type="xygrid" />
  </sodipodi:namedview>
  <defs
     id="defs2385">
    <inkscape:perspective
       id="perspective2392"
       inkscape:persp3d-origin="526.18109 : 248.03149 : 1"
       inkscape:vp_z="1052.3622 : 372.04724 : 1"
       inkscape:vp_y="0 : 1000 : 0"
       inkscape:vp_x="0 : 372.04724 : 1"
       sodipodi:type="inkscape:persp3d" />
  </defs>
  <metadata
     id="metadata2389">
    <rdf:RDF>
      <cc:Work
         rdf:about="">
        <dc:format>image/svg+xml</dc:format>
        <dc:type
           rdf:resource="http://purl.org/dc/dcmitype/StillImage" />
      </cc:Work>
    </rdf:RDF>
  </metadata>
  <g
     id="layer1"
     inkscape:groupmode="layer"
     inkscape:label="Layer 1">
    <rect
       inkscape:export-filename="/home/jiffies/images/labor/labor-artwork/logos/labortage/t_shirt_logolabortage_2009/logo_circuits.png"
       inkscape:export-ydpi="90"
       inkscape:export-xdpi="90"
       y="20.482422"
       x="-27.405823"
       height="1203.6121"
       width="3231.1543"
       id="rect2436"
       style="fill:#ffffff;stroke-width:3;stroke-miterlimit:4;stroke-dasharray:none;stroke:#ffffff;stroke-opacity:0" />
    <path
       sodipodi:nodetypes="csssssscc"
       id="path3207"
       d="M 877.25206,503.60188 C 877.96811,507.93684 877.14398,523.75811 878.80643,532.86258 C 879.63765,537.41482 880.27055,541.16092 881.03942,544.3093 C 881.80829,547.45767 886.49795,556.18979 886.58405,556.32908 C 888.71206,559.77159 892.21104,562.54735 893.50318,563.31753 C 896.24679,564.95284 897.57839,568.25028 914.31316,571.32643 C 927.83978,573.81287 1002.1131,572.63388 1002.1131,572.63388 M 878.51392,173.26916 L 877.25206,503.60188"
       style="fill:none;fill-rule:evenodd;stroke:#000000;stroke-width:25;stroke-linecap:butt;stroke-linejoin:miter;stroke-miterlimit:4;stroke-dasharray:none;stroke-opacity:0.98070738999999996" />
    <path
       sodipodi:nodetypes="ccssssc"
       id="path3227"
       d="M 968.16136,381.5199 L 1061.0169,381.5199 C 1061.0169,381.5199 1091.3295,379.98591 1101.6949,386.60465 C 1113.8239,394.34949 1127.1541,412.89183 1127.1186,427.28262 C 1127.0293,463.51749 1126.8591,487.93831 1127.1186,529.99448 C 1127.1789,539.77351 1116.2638,561 1105.0847,567.96057 C 1092.5373,575.77308 1055.9322,571.3504 1055.9322,571.3504"
       style="fill:none;fill-rule:evenodd;stroke:#000000;stroke-width:25;stroke-linecap:butt;stroke-linejoin:miter;stroke-miterlimit:4;stroke-dasharray:none;stroke-opacity:1" />
    <path
       id="path3255"
       d="M 1237.0809,569.81971 L 1398.7552,569.81971 L 1396.9386,569.81971"
       style="fill:none;fill-rule:evenodd;stroke:#000000;stroke-width:25;stroke-linecap:butt;stroke-linejoin:miter;stroke-miterlimit:4;stroke-dasharray:none;stroke-opacity:1" />
    <path
       sodipodi:nodetypes="csssc"
       id="path3257"
       d="M 1291.6358,363.07503 C 1291.6358,363.07503 1259.8321,361.55646 1245.522,364.55468 C 1235.4229,366.67062 1226.6387,370.42011 1221.7506,376.79373 C 1216.9438,383.06121 1212.4182,387.19765 1211.8234,404.58089 C 1210.6877,437.77415 1211.8234,539.39732 1211.8234,539.39732"
       style="fill:none;fill-rule:evenodd;stroke:#000000;stroke-width:25;stroke-linecap:butt;stroke-linejoin:miter;stroke-miterlimit:4;stroke-dasharray:none;stroke-opacity:1" />
    <path
       sodipodi:nodetypes="csssc"
       id="path3259"
       d="M 1339.4312,363.13263 C 1339.4312,363.13263 1372.0052,361.61506 1386.6619,364.61132 C 1397.0056,366.72587 1406.0026,370.47291 1411.0091,376.84235 C 1415.9323,383.10573 1420.5675,387.23946 1421.1767,404.61132 C 1422.3399,437.78284 1421.1767,539.33946 1421.1767,539.33946"
       style="fill:none;fill-rule:evenodd;stroke:#000000;stroke-width:25;stroke-linecap:butt;stroke-linejoin:miter;stroke-miterlimit:4;stroke-dasharray:none;stroke-opacity:1" />
    <path
       id="path3360"
       d="M 1616.3636,536.82176 L 1616.3636,451.36721 L 1638.1818,411.36721 L 1676.3636,385.91266 L 1721.8182,375.00357"
       style="fill:none;fill-rule:evenodd;stroke:#ffffff;stroke-width:1px;stroke-linecap:butt;stroke-linejoin:miter;stroke-opacity:1" />
    <path
       sodipodi:nodetypes="csssc"
       id="path3366"
       d="M 1536.7934,546.28361 C 1536.7934,546.28361 1534.2685,407.31948 1537.4164,391.88689 C 1542.925,364.88092 1546.2954,365.64239 1557.7723,355.08859 C 1573.2184,340.88476 1592.7761,342.28948 1616.7934,340.76115 C 1641.2169,339.20697 1701.8163,340.76115 1701.8163,340.76115"
       style="fill:none;fill-rule:evenodd;stroke:#000000;stroke-width:25;stroke-linecap:butt;stroke-linejoin:miter;stroke-miterlimit:4;stroke-dasharray:none;stroke-opacity:1" />
    <path
       sodipodi:nodetypes="cssssc"
       id="path3514"
       d="M 1860.8869,294.49965 C 1860.8869,294.49965 1896.544,293.10499 1911.7344,294.49965 C 1925.6382,295.77618 1945.3154,296.15152 1957.4971,302.97422 C 1963.4656,306.31702 1969.7021,313.79973 1972.7513,319.92338 C 1979.9077,334.29544 1982.7867,356.41107 1982.9208,372.46575 C 1983.3418,422.86344 1982.9209,547.04202 1982.9209,547.04202"
       style="fill:none;fill-rule:evenodd;stroke:#000000;stroke-width:25;stroke-linecap:butt;stroke-linejoin:miter;stroke-miterlimit:4;stroke-dasharray:none;stroke-opacity:1" />
    <path
       sodipodi:nodetypes="csssc"
       id="path3654"
       d="M 1975.5465,121.73112 C 1975.5465,121.73112 1975.8883,206.98144 1975.5465,242.36604 C 1975.4456,252.80922 1982.9189,266.28413 1989.8322,274.11207 C 1998.3197,283.72252 2013.5659,295.23028 2026.3401,296.33429 C 2053.3703,298.67039 2115.7209,295.96917 2116.8163,296.33429"
       style="fill:none;fill-rule:evenodd;stroke:#000000;stroke-width:25;stroke-linecap:butt;stroke-linejoin:miter;stroke-miterlimit:4;stroke-dasharray:none;stroke-opacity:1" />
    <path
       sodipodi:nodetypes="cssscsssc"
       id="path3782"
       d="M 2713.501,359.00973 C 2713.501,359.00973 2634.6384,359.59674 2610.1587,363.3368 C 2592.0351,366.10576 2564.5957,369.69245 2548.2869,378.06819 C 2537.6651,383.52318 2521.7521,394.18897 2515.8778,404.58469 C 2507.8391,418.81079 2507.6916,463.63501 2507.6916,463.63501 C 2507.6916,463.63501 2507.9655,523.64409 2510.1587,547.91607 C 2511.7658,565.7014 2523.246,564.08896 2533.5657,564.58165 C 2564.3752,566.05257 2610.1587,565.15686 2610.1587,565.15686 C 2624.451,564.09448 2644.5258,565.46434 2644.5258,565.46434"
       style="fill:none;fill-rule:evenodd;stroke:#000000;stroke-width:25;stroke-linecap:butt;stroke-linejoin:miter;stroke-miterlimit:4;stroke-dasharray:none;stroke-opacity:1" />
    <path
       sodipodi:nodetypes="cssssc"
       id="path3803"
       d="M 2739.6825,381.86688 C 2739.6825,381.86688 2739.9049,536.96378 2738.0952,596.15259 C 2737.7339,608.28773 2738.1955,619.94808 2734.6734,638.84491 C 2732.1072,652.61299 2726.6407,664.36713 2714.5453,675.94199 C 2701.0574,688.84941 2685.3317,692.27038 2657.8236,696.83338 C 2641.595,699.52535 2598.4951,696.83338 2598.4951,696.83338"
       style="fill:none;fill-rule:evenodd;stroke:#000000;stroke-width:25;stroke-linecap:butt;stroke-linejoin:miter;stroke-miterlimit:4;stroke-dasharray:none;stroke-opacity:1" />
    <path
       id="path3807"
       d="M 2887.9591,463.02585 L 3058.7924,463.02585"
       style="fill:none;fill-rule:evenodd;stroke:#000000;stroke-width:20;stroke-linecap:butt;stroke-linejoin:miter;stroke-miterlimit:4;stroke-dasharray:none;stroke-opacity:1" />
    <path
       sodipodi:nodetypes="cssscssz"
       id="path3809"
       d="M 2865.0424,440.17291 C 2865.0424,440.17291 2863.0078,398.03336 2869.2091,385.76115 C 2875.8615,372.59595 2892.4529,365.33982 2904.6257,360.76115 C 2926.978,352.35354 2959.9259,351.58935 2983.7924,352.42781 C 3000.2846,353.00721 3037.9591,362.01115 3037.9591,362.01115 C 3041.9215,363.96244 3045.441,366.06301 3048.991,367.10577 C 3072.5424,374.02365 3085.2325,389.9904 3085.263,392.25626 L 3085.8757,437.84448"
       style="fill:none;fill-rule:evenodd;stroke:#000000;stroke-width:25;stroke-linecap:butt;stroke-linejoin:miter;stroke-miterlimit:4;stroke-dasharray:none;stroke-opacity:1" />
    <path
       sodipodi:nodetypes="csssc"
       id="path3813"
       d="M 2865.7777,491.15331 C 2865.7777,491.15331 2864.4443,523.34832 2867.2483,536.74154 C 2868.7088,543.71772 2870.5958,554.23815 2876.0718,558.80036 C 2884.647,565.94464 2901.4362,565.04489 2912.5424,566.15331 C 2924.0441,567.30121 2951.0718,566.15331 2951.0718,566.15331"
       style="fill:none;fill-rule:evenodd;stroke:#000000;stroke-width:25;stroke-linecap:butt;stroke-linejoin:miter;stroke-miterlimit:4;stroke-dasharray:none;stroke-opacity:1" />
    <path
       sodipodi:nodetypes="csssccsssc"
       id="path3394"
       d="M 2195.0371,445.9612 C 2193.2047,467.35298 2194.09,480.87395 2195.468,506.95168 C 2196.0488,517.94367 2196.8483,534.17913 2206.744,549.95734 C 2211.3483,557.29886 2223.8675,564.05231 2228.5101,564.92712 C 2245.2158,568.07496 2339.7296,565.96121 2376.4563,566.422 M 2380,362.39956 C 2380,362.39956 2321.9839,361.53589 2297.5042,365.27595 C 2279.3806,368.04491 2251.9412,371.6316 2235.6324,380.00734 C 2225.0106,385.46233 2209.0976,396.12812 2203.2233,406.52384 C 2195.1846,420.74994 2194.7698,428.4013 2195.0371,445.9612"
       style="fill:none;fill-rule:evenodd;stroke:#000000;stroke-width:25;stroke-linecap:butt;stroke-linejoin:miter;stroke-miterlimit:4;stroke-dasharray:none;stroke-opacity:1" />
    <path
       sodipodi:nodetypes="cssss"
       id="path3404"
       d="M 2407.5579,335.04662 C 2407.5579,335.04662 2408.2576,310.93588 2407.7822,301.1533 C 2407.4325,293.95771 2403.4105,286.80363 2397.4881,282.32978 C 2390.9971,277.42638 2379.1426,276.04856 2371.0175,276.44742 C 2358.712,277.05149 2344.5469,276.44742 2344.5469,276.44742"
       style="fill:none;fill-rule:evenodd;stroke:#000000;stroke-width:25;stroke-linecap:butt;stroke-linejoin:miter;stroke-miterlimit:4;stroke-dasharray:none;stroke-opacity:1" />
    <path
       id="path3418"
       d="M 2407.5579,382.39956 L 2407.5579,542.39956"
       style="fill:none;fill-rule:evenodd;stroke:#000000;stroke-width:25;stroke-linecap:butt;stroke-linejoin:miter;stroke-miterlimit:4;stroke-dasharray:none;stroke-opacity:1" />
    <path
       sodipodi:nodetypes="csssccsssc"
       id="path3448"
       d="M 552.5668,447.65612 C 550.7344,469.0479 551.6197,482.56887 552.9977,508.6466 C 553.5785,519.63859 554.378,535.87405 564.2737,551.65226 C 568.878,558.99378 581.3972,565.74723 586.0398,566.62204 C 602.7455,569.76988 697.2593,567.65613 733.986,568.11692 M 737.5297,364.09448 C 737.5297,364.09448 679.5136,363.23081 655.0339,366.97087 C 636.9103,369.73983 609.4709,373.32652 593.1621,381.70226 C 582.5403,387.15725 566.6273,397.82304 560.753,408.21876 C 552.7143,422.44486 552.2995,430.09622 552.5668,447.65612"
       style="fill:none;fill-rule:evenodd;stroke:#000000;stroke-width:25;stroke-linecap:butt;stroke-linejoin:miter;stroke-miterlimit:4;stroke-dasharray:none;stroke-opacity:1" />
    <path
       sodipodi:nodetypes="cssss"
       id="path3456"
       d="M 765.0876,336.74154 C 765.0876,336.74154 765.7873,312.6308 765.3119,302.84822 C 764.9622,295.65263 760.9402,288.49855 755.0178,284.0247 C 748.5268,279.1213 736.6723,277.74348 728.5472,278.14234 C 716.2417,278.74641 702.0766,278.14234 702.0766,278.14234"
       style="fill:none;fill-rule:evenodd;stroke:#000000;stroke-width:25;stroke-linecap:butt;stroke-linejoin:miter;stroke-miterlimit:4;stroke-dasharray:none;stroke-opacity:1" />
    <path
       id="path3459"
       d="M 764.28571,384.09448 L 764.28571,544.09448"
       style="fill:none;fill-rule:evenodd;stroke:#000000;stroke-width:25;stroke-linecap:butt;stroke-linejoin:miter;stroke-miterlimit:4;stroke-dasharray:none;stroke-opacity:1" />
    <path
       sodipodi:nodetypes="cssssssssss"
       id="path2586"
       d="M 2166.9056,818.92485 C 2166.9056,818.92485 2200.8297,818.62722 2220.5963,818.92484 C 2241.8754,819.24523 2255.9194,819.84269 2265.5804,829.08254 C 2275.4581,838.52962 2281.7556,844.39786 2284.4447,856.65344 C 2288.7111,876.09794 2288.8788,909.40186 2288.5077,929.20841 C 2288.2934,940.64689 2287.6118,956.57432 2280.0914,965.19566 C 2268.2918,978.72257 2253.7073,988.07701 2238.0095,994.50792 C 2220.8613,1001.5329 2212.3916,1007.8575 2197.3787,1014.8232 C 2187.289,1019.5047 2175.3288,1026.3093 2167.1958,1033.3973 C 2159.6043,1040.0133 2154.0567,1048.9035 2149.4924,1064.1606 C 2146.2388,1075.0364 2146.5902,1113.4981 2146.5902,1113.4981"
       style="fill:none;fill-rule:evenodd;stroke:#000000;stroke-width:25;stroke-linecap:butt;stroke-linejoin:miter;stroke-miterlimit:4;stroke-dasharray:none;stroke-opacity:1" />
    <path
       id="path3369"
       d="M 2164.0034,1135.1962 L 2264.1293,1135.1962"
       style="fill:none;fill-rule:evenodd;stroke:#000000;stroke-width:24.99999809;stroke-linecap:butt;stroke-linejoin:miter;stroke-miterlimit:4;stroke-dasharray:none;stroke-opacity:1" />
    <path
       sodipodi:nodetypes="csssscssssc"
       id="path3447"
       d="M 2410.4771,817.26335 C 2410.4771,817.26335 2395.7378,816.00426 2389.6036,817.26335 C 2385.3567,818.13506 2379.8613,820.45425 2376.3205,822.95612 C 2372.2078,825.86211 2367.0162,830.70492 2364.9349,835.29047 C 2361.6221,842.58933 2362.2271,853.84245 2362.0885,861.85676 C 2361.6101,889.52351 2362.0885,951.04359 2362.0885,951.04359 C 2362.0885,951.04359 2361.8398,1048.5038 2362.0885,1091.4653 C 2362.1335,1099.2343 2362.5574,1110.0618 2365.8837,1117.0828 C 2367.6954,1120.9068 2371.7251,1125.373 2375.3717,1127.5195 C 2379.6556,1130.0413 2383.6944,1133.8804 2390.5524,1134.1611 C 2399.0588,1134.5093 2409.5283,1135.11 2409.5283,1135.11"
       style="fill:none;fill-rule:evenodd;stroke:#000000;stroke-width:25;stroke-linecap:butt;stroke-linejoin:miter;stroke-miterlimit:4;stroke-dasharray:none;stroke-opacity:1" />
    <path
       sodipodi:nodetypes="csssscssssc"
       id="path3449"
       d="M 2449.5991,817.26337 C 2449.5991,817.26337 2464.3385,816.00428 2470.4726,817.26337 C 2474.7196,818.13508 2480.215,820.45427 2483.7558,822.95614 C 2487.8685,825.86213 2493.06,830.70494 2495.1413,835.29049 C 2498.4542,842.58935 2497.8491,853.84248 2497.9877,861.85678 C 2498.4662,889.52353 2497.9877,951.0436 2497.9877,951.0436 C 2497.9877,951.0436 2498.2365,1048.5039 2497.9877,1091.4654 C 2497.9427,1099.2344 2497.5189,1110.0618 2494.1925,1117.0829 C 2492.3808,1120.9068 2488.3511,1125.373 2484.7046,1127.5196 C 2480.4207,1130.0413 2476.3819,1133.8804 2469.5238,1134.1612 C 2461.0175,1134.5093 2450.5479,1135.1099 2450.5479,1135.1099"
       style="fill:none;fill-rule:evenodd;stroke:#000000;stroke-width:25;stroke-linecap:butt;stroke-linejoin:miter;stroke-miterlimit:4;stroke-dasharray:none;stroke-opacity:1" />
    <path
       id="path3546"
       d="M 2805.9457,960.55258 L 2906.0716,960.55258"
       style="fill:none;fill-rule:evenodd;stroke:#000000;stroke-width:24.99999809;stroke-linecap:butt;stroke-linejoin:miter;stroke-miterlimit:4;stroke-dasharray:none;stroke-opacity:1" />
    <path
       sodipodi:nodetypes="cssscc"
       id="path3562"
       d="M 2840.1347,817.80544 C 2840.1347,817.80544 2822.5339,817.58563 2810.7672,817.80544 C 2806.3732,817.88752 2799.5863,820.64545 2796.1581,823.00615 C 2792.8488,825.28505 2791.7526,828.64005 2789.9536,832.23289 C 2787.565,837.00309 2787.2732,851.40185 2787.2732,851.40185 L 2787.2732,940.20916"
       style="fill:none;fill-rule:evenodd;stroke:#000000;stroke-width:24.99999809;stroke-linecap:butt;stroke-linejoin:miter;stroke-miterlimit:4;stroke-dasharray:none;stroke-opacity:1" />
    <path
       sodipodi:nodetypes="cssscc"
       id="path3564"
       d="M 2878.8172,817.80544 C 2878.8172,817.80544 2896.4179,817.58563 2908.1846,817.80544 C 2912.5786,817.88752 2919.3656,820.64544 2922.7937,823.00616 C 2926.1031,825.28506 2927.1992,828.64004 2928.9983,832.23289 C 2931.3868,837.0031 2931.6787,851.40186 2931.6787,851.40186 L 2931.6787,940.20916"
       style="fill:none;fill-rule:evenodd;stroke:#000000;stroke-width:24.99999809;stroke-linecap:butt;stroke-linejoin:miter;stroke-miterlimit:4;stroke-dasharray:none;stroke-opacity:1" />
    <path
       sodipodi:nodetypes="cssssc"
       id="path2562"
       d="M 2925.8991,985.35254 C 2925.8991,985.35254 2926.0933,1069.3828 2925.8991,1105.343 C 2925.8735,1110.1046 2925.8252,1116.5877 2924.4622,1121.1501 C 2923.4133,1124.6612 2921.2671,1129.299 2918.7141,1131.9277 C 2916.2926,1134.4209 2912.1239,1137.4578 2908.6551,1137.6757 C 2897.2182,1138.3942 2874.1667,1137.6757 2874.1667,1137.6757"
       style="fill:none;fill-rule:evenodd;stroke:#000000;stroke-width:25;stroke-linecap:butt;stroke-linejoin:miter;stroke-miterlimit:4;stroke-dasharray:none;stroke-opacity:1" />
    <path
       sodipodi:nodetypes="csssscssssc"
       id="path5120"
       d="M 2624.5067,817.85205 C 2624.5067,817.85205 2609.7674,816.59296 2603.6332,817.85205 C 2599.3863,818.72376 2593.8909,821.04295 2590.3501,823.54482 C 2586.2374,826.45081 2581.0458,831.29362 2578.9645,835.87917 C 2575.6517,843.17803 2576.2567,854.43115 2576.1181,862.44546 C 2575.6397,890.11221 2576.1181,951.63229 2576.1181,951.63229 C 2576.1181,951.63229 2575.8694,1049.0926 2576.1181,1092.0541 C 2576.1631,1099.8231 2576.587,1110.6506 2579.9133,1117.6716 C 2581.725,1121.4956 2585.7547,1125.9618 2589.4013,1128.1083 C 2593.6852,1130.6301 2597.724,1134.4692 2604.582,1134.7499 C 2613.0884,1135.0981 2623.5579,1135.6987 2623.5579,1135.6987"
       style="fill:none;fill-rule:evenodd;stroke:#000000;stroke-width:25;stroke-linecap:butt;stroke-linejoin:miter;stroke-miterlimit:4;stroke-dasharray:none;stroke-opacity:1" />
    <path
       sodipodi:nodetypes="csssscssssc"
       id="path5122"
       d="M 2662.3467,817.95674 C 2662.3467,817.95674 2677.0861,816.69765 2683.2202,817.95674 C 2687.4672,818.82845 2692.9626,821.14764 2696.5034,823.64951 C 2700.6161,826.5555 2705.8076,831.39831 2707.8889,835.98386 C 2711.2018,843.28272 2710.5967,854.53585 2710.7353,862.55015 C 2711.2138,890.2169 2710.7353,951.73697 2710.7353,951.73697 C 2710.7353,951.73697 2710.9841,1049.1973 2710.7353,1092.1588 C 2710.6903,1099.9278 2710.2665,1110.7552 2706.9401,1117.7763 C 2705.1284,1121.6002 2701.0987,1126.0664 2697.4522,1128.213 C 2693.1683,1130.7347 2689.1295,1134.5738 2682.2714,1134.8546 C 2673.7651,1135.2027 2663.2955,1135.8033 2663.2955,1135.8033"
       style="fill:none;fill-rule:evenodd;stroke:#000000;stroke-width:25;stroke-linecap:butt;stroke-linejoin:miter;stroke-miterlimit:4;stroke-dasharray:none;stroke-opacity:1" />
    <path
       transform="matrix(1.3733578,0,0,1.3733578,-32.647328,-72.380752)"
       d="M 99.61997,194.46707 A 19.923994,19.923994 0 1 1 59.771982,194.46707 A 19.923994,19.923994 0 1 1 99.61997,194.46707 z"
       sodipodi:ry="19.923994"
       sodipodi:rx="19.923994"
       sodipodi:cy="194.46707"
       sodipodi:cx="79.695976"
       id="path2557"
       style="opacity:1;fill:#ffffff;fill-opacity:0;stroke:#000000;stroke-width:12.90083027;stroke-miterlimit:4;stroke-dasharray:none;stroke-opacity:1"
       sodipodi:type="arc" />
    <path
       transform="matrix(1.3733578,0,0,1.3733578,335.43881,301.35699)"
       d="M 99.61997,194.46707 A 19.923994,19.923994 0 1 1 59.771982,194.46707 A 19.923994,19.923994 0 1 1 99.61997,194.46707 z"
       sodipodi:ry="19.923994"
       sodipodi:rx="19.923994"
       sodipodi:cy="194.46707"
       sodipodi:cx="79.695976"
       id="path3372"
       style="opacity:1;fill:#ffffff;fill-opacity:0;stroke:#000000;stroke-width:12.90083027;stroke-miterlimit:4;stroke-dasharray:none;stroke-opacity:1"
       sodipodi:type="arc" />
    <path
       transform="matrix(1.3733578,0,0,1.3733578,569.91605,11.163732)"
       d="M 99.61997,194.46707 A 19.923994,19.923994 0 1 1 59.771982,194.46707 A 19.923994,19.923994 0 1 1 99.61997,194.46707 z"
       sodipodi:ry="19.923994"
       sodipodi:rx="19.923994"
       sodipodi:cy="194.46707"
       sodipodi:cx="79.695976"
       id="path3380"
       style="opacity:1;fill:#ffffff;fill-opacity:0;stroke:#000000;stroke-width:12.90083027;stroke-miterlimit:4;stroke-dasharray:none;stroke-opacity:1"
       sodipodi:type="arc" />
    <path
       transform="matrix(1.3733578,0,0,1.3733578,653.92913,94.121044)"
       d="M 99.61997,194.46707 A 19.923994,19.923994 0 1 1 59.771982,194.46707 A 19.923994,19.923994 0 1 1 99.61997,194.46707 z"
       sodipodi:ry="19.923994"
       sodipodi:rx="19.923994"
       sodipodi:cy="194.46707"
       sodipodi:cx="79.695976"
       id="path3382"
       style="opacity:1;fill:#ffffff;fill-opacity:0;stroke:#000000;stroke-width:12.90083027;stroke-miterlimit:4;stroke-dasharray:none;stroke-opacity:1"
       sodipodi:type="arc" />
    <path
       transform="matrix(1.3733578,0,0,1.3733578,653.92913,301.35699)"
       d="M 99.61997,194.46707 A 19.923994,19.923994 0 1 1 59.771982,194.46707 A 19.923994,19.923994 0 1 1 99.61997,194.46707 z"
       sodipodi:ry="19.923994"
       sodipodi:rx="19.923994"
       sodipodi:cy="194.46707"
       sodipodi:cx="79.695976"
       id="path3384"
       style="opacity:1;fill:#ffffff;fill-opacity:0;stroke:#000000;stroke-width:12.90083027;stroke-miterlimit:4;stroke-dasharray:none;stroke-opacity:1"
       sodipodi:type="arc" />
    <path
       transform="matrix(1.3733578,0,0,1.3733578,840.47188,114.27372)"
       d="M 99.61997,194.46707 A 19.923994,19.923994 0 1 1 59.771982,194.46707 A 19.923994,19.923994 0 1 1 99.61997,194.46707 z"
       sodipodi:ry="19.923994"
       sodipodi:rx="19.923994"
       sodipodi:cy="194.46707"
       sodipodi:cx="79.695976"
       id="path3386"
       style="opacity:1;fill:#ffffff;fill-opacity:0;stroke:#000000;stroke-width:12.90083027;stroke-miterlimit:4;stroke-dasharray:none;stroke-opacity:1"
       sodipodi:type="arc" />
    <path
       transform="matrix(1.3733578,0,0,1.3733578,917.91168,303.30307)"
       d="M 99.61997,194.46707 A 19.923994,19.923994 0 1 1 59.771982,194.46707 A 19.923994,19.923994 0 1 1 99.61997,194.46707 z"
       sodipodi:ry="19.923994"
       sodipodi:rx="19.923994"
       sodipodi:cy="194.46707"
       sodipodi:cx="79.695976"
       id="path3388"
       style="opacity:1;fill:#ffffff;fill-opacity:0;stroke:#000000;stroke-width:12.90083027;stroke-miterlimit:4;stroke-dasharray:none;stroke-opacity:1"
       sodipodi:type="arc" />
    <path
       transform="matrix(1.3402423,0,0,1.3780081,770.84301,-118.38602)"
       d="M 99.61997,194.46707 A 19.923994,19.923994 0 1 1 59.771982,194.46707 A 19.923994,19.923994 0 1 1 99.61997,194.46707 z"
       sodipodi:ry="19.923994"
       sodipodi:rx="19.923994"
       sodipodi:cy="194.46707"
       sodipodi:cx="79.695976"
       id="path3390"
       style="opacity:1;fill:#ffffff;fill-opacity:0;stroke:#000000;stroke-width:12.90083027;stroke-miterlimit:4;stroke-dasharray:none;stroke-opacity:1"
       sodipodi:type="arc" />
    <path
       transform="matrix(1.3733578,0,0,1.3733578,1105.7282,302.74684)"
       d="M 99.61997,194.46707 A 19.923994,19.923994 0 1 1 59.771982,194.46707 A 19.923994,19.923994 0 1 1 99.61997,194.46707 z"
       sodipodi:ry="19.923994"
       sodipodi:rx="19.923994"
       sodipodi:cy="194.46707"
       sodipodi:cx="79.695976"
       id="path3392"
       style="opacity:1;fill:#ffffff;fill-opacity:0;stroke:#000000;stroke-width:12.90083027;stroke-miterlimit:4;stroke-dasharray:none;stroke-opacity:1"
       sodipodi:type="arc" />
    <path
       transform="matrix(1.3733578,0,0,1.3733578,1205.9681,95.953104)"
       d="M 99.61997,194.46707 A 19.923994,19.923994 0 1 1 59.771982,194.46707 A 19.923994,19.923994 0 1 1 99.61997,194.46707 z"
       sodipodi:ry="19.923994"
       sodipodi:rx="19.923994"
       sodipodi:cy="194.46707"
       sodipodi:cx="79.695976"
       id="path3395"
       style="opacity:1;fill:#ffffff;fill-opacity:0;stroke:#000000;stroke-width:12.90083027;stroke-miterlimit:4;stroke-dasharray:none;stroke-opacity:1"
       sodipodi:type="arc" />
    <path
       transform="matrix(1.3733578,0,0,1.3733578,1310.5489,302.74684)"
       d="M 99.61997,194.46707 A 19.923994,19.923994 0 1 1 59.771982,194.46707 A 19.923994,19.923994 0 1 1 99.61997,194.46707 z"
       sodipodi:ry="19.923994"
       sodipodi:rx="19.923994"
       sodipodi:cy="194.46707"
       sodipodi:cx="79.695976"
       id="path3397"
       style="opacity:1;fill:#ffffff;fill-opacity:0;stroke:#000000;stroke-width:12.90083027;stroke-miterlimit:4;stroke-dasharray:none;stroke-opacity:1"
       sodipodi:type="arc" />
    <path
       transform="matrix(1.3733578,0,0,1.3733578,1427.1239,301.14384)"
       d="M 99.61997,194.46707 A 19.923994,19.923994 0 1 1 59.771982,194.46707 A 19.923994,19.923994 0 1 1 99.61997,194.46707 z"
       sodipodi:ry="19.923994"
       sodipodi:rx="19.923994"
       sodipodi:cy="194.46707"
       sodipodi:cx="79.695976"
       id="path3399"
       style="opacity:1;fill:#ffffff;fill-opacity:0;stroke:#000000;stroke-width:12.90083027;stroke-miterlimit:4;stroke-dasharray:none;stroke-opacity:1"
       sodipodi:type="arc" />
    <path
       transform="matrix(1.3733578,0,0,1.3733578,1614.1903,73.968382)"
       d="M 99.61997,194.46707 A 19.923994,19.923994 0 1 1 59.771982,194.46707 A 19.923994,19.923994 0 1 1 99.61997,194.46707 z"
       sodipodi:ry="19.923994"
       sodipodi:rx="19.923994"
       sodipodi:cy="194.46707"
       sodipodi:cx="79.695976"
       id="path3401"
       style="opacity:1;fill:#ffffff;fill-opacity:0;stroke:#000000;stroke-width:12.90083027;stroke-miterlimit:4;stroke-dasharray:none;stroke-opacity:1"
       sodipodi:type="arc" />
    <path
       transform="matrix(1.3733578,0,0,1.3733578,1872.707,298.13406)"
       d="M 99.61997,194.46707 A 19.923994,19.923994 0 1 1 59.771982,194.46707 A 19.923994,19.923994 0 1 1 99.61997,194.46707 z"
       sodipodi:ry="19.923994"
       sodipodi:rx="19.923994"
       sodipodi:cy="194.46707"
       sodipodi:cx="79.695976"
       id="path3403"
       style="opacity:1;fill:#ffffff;fill-opacity:0;stroke:#000000;stroke-width:12.90083027;stroke-miterlimit:4;stroke-dasharray:none;stroke-opacity:1"
       sodipodi:type="arc" />
    <path
       transform="matrix(1.3733578,0,0,1.3733578,1730.5489,26.498403)"
       d="M 99.61997,194.46707 A 19.923994,19.923994 0 1 1 59.771982,194.46707 A 19.923994,19.923994 0 1 1 99.61997,194.46707 z"
       sodipodi:ry="19.923994"
       sodipodi:rx="19.923994"
       sodipodi:cy="194.46707"
       sodipodi:cx="79.695976"
       id="path3405"
       style="opacity:1;fill:#ffffff;fill-opacity:0;stroke:#000000;stroke-width:12.90083027;stroke-miterlimit:4;stroke-dasharray:none;stroke-opacity:1"
       sodipodi:type="arc" />
    <path
       transform="matrix(1.3733578,0,0,1.3733578,2028.5631,26.498403)"
       d="M 99.61997,194.46707 A 19.923994,19.923994 0 1 1 59.771982,194.46707 A 19.923994,19.923994 0 1 1 99.61997,194.46707 z"
       sodipodi:ry="19.923994"
       sodipodi:rx="19.923994"
       sodipodi:cy="194.46707"
       sodipodi:cx="79.695976"
       id="path3407"
       style="opacity:1;fill:#ffffff;fill-opacity:0;stroke:#000000;stroke-width:12.90083027;stroke-miterlimit:4;stroke-dasharray:none;stroke-opacity:1"
       sodipodi:type="arc" />
    <path
       transform="matrix(1.3733578,0,0,1.3733578,1865.1826,-165.05)"
       d="M 99.61997,194.46707 A 19.923994,19.923994 0 1 1 59.771982,194.46707 A 19.923994,19.923994 0 1 1 99.61997,194.46707 z"
       sodipodi:ry="19.923994"
       sodipodi:rx="19.923994"
       sodipodi:cy="194.46707"
       sodipodi:cx="79.695976"
       id="path3409"
       style="opacity:1;fill:#ffffff;fill-opacity:0;stroke:#000000;stroke-width:12.90083027;stroke-miterlimit:4;stroke-dasharray:none;stroke-opacity:1"
       sodipodi:type="arc" />
    <path
       transform="matrix(1.3733578,0,0,1.3733578,2298.3012,301.14384)"
       d="M 99.61997,194.46707 A 19.923994,19.923994 0 1 1 59.771982,194.46707 A 19.923994,19.923994 0 1 1 99.61997,194.46707 z"
       sodipodi:ry="19.923994"
       sodipodi:rx="19.923994"
       sodipodi:cy="194.46707"
       sodipodi:cx="79.695976"
       id="path3411"
       style="opacity:1;fill:#ffffff;fill-opacity:0;stroke:#000000;stroke-width:12.90083027;stroke-miterlimit:4;stroke-dasharray:none;stroke-opacity:1"
       sodipodi:type="arc" />
    <path
       transform="matrix(1.3733578,0,0,1.3733578,2298.3012,88.624863)"
       d="M 99.61997,194.46707 A 19.923994,19.923994 0 1 1 59.771982,194.46707 A 19.923994,19.923994 0 1 1 99.61997,194.46707 z"
       sodipodi:ry="19.923994"
       sodipodi:rx="19.923994"
       sodipodi:cy="194.46707"
       sodipodi:cx="79.695976"
       id="path3413"
       style="opacity:1;fill:#ffffff;fill-opacity:0;stroke:#000000;stroke-width:12.90083027;stroke-miterlimit:4;stroke-dasharray:none;stroke-opacity:1"
       sodipodi:type="arc" />
    <path
       transform="matrix(1.3733578,0,0,1.3733578,2213.9283,9.6588402)"
       d="M 99.61997,194.46707 A 19.923994,19.923994 0 1 1 59.771982,194.46707 A 19.923994,19.923994 0 1 1 99.61997,194.46707 z"
       sodipodi:ry="19.923994"
       sodipodi:rx="19.923994"
       sodipodi:cy="194.46707"
       sodipodi:cx="79.695976"
       id="path3415"
       style="opacity:1;fill:#ffffff;fill-opacity:0;stroke:#000000;stroke-width:12.90083027;stroke-miterlimit:4;stroke-dasharray:none;stroke-opacity:1"
       sodipodi:type="arc" />
    <path
       transform="matrix(1.3733578,0,0,1.3733578,2628.8245,94.317263)"
       d="M 99.61997,194.46707 A 19.923994,19.923994 0 1 1 59.771982,194.46707 A 19.923994,19.923994 0 1 1 99.61997,194.46707 z"
       sodipodi:ry="19.923994"
       sodipodi:rx="19.923994"
       sodipodi:cy="194.46707"
       sodipodi:cx="79.695976"
       id="path3417"
       style="opacity:1;fill:#ffffff;fill-opacity:0;stroke:#000000;stroke-width:12.90083027;stroke-miterlimit:4;stroke-dasharray:none;stroke-opacity:1"
       sodipodi:type="arc" />
    <path
       transform="matrix(1.3733578,0,0,1.3733578,2462.0418,428.79898)"
       d="M 99.61997,194.46707 A 19.923994,19.923994 0 1 1 59.771982,194.46707 A 19.923994,19.923994 0 1 1 99.61997,194.46707 z"
       sodipodi:ry="19.923994"
       sodipodi:rx="19.923994"
       sodipodi:cy="194.46707"
       sodipodi:cx="79.695976"
       id="path3419"
       style="opacity:1;fill:#ffffff;fill-opacity:0;stroke:#000000;stroke-width:12.90083027;stroke-miterlimit:4;stroke-dasharray:none;stroke-opacity:1"
       sodipodi:type="arc" />
    <path
       transform="matrix(1.3733578,0,0,1.3733578,2553.5587,300.16234)"
       d="M 99.61997,194.46707 A 19.923994,19.923994 0 1 1 59.771982,194.46707 A 19.923994,19.923994 0 1 1 99.61997,194.46707 z"
       sodipodi:ry="19.923994"
       sodipodi:rx="19.923994"
       sodipodi:cy="194.46707"
       sodipodi:cx="79.695976"
       id="path3421"
       style="opacity:1;fill:#ffffff;fill-opacity:0;stroke:#000000;stroke-width:12.90083027;stroke-miterlimit:4;stroke-dasharray:none;stroke-opacity:1"
       sodipodi:type="arc" />
    <path
       transform="matrix(1.3733578,0,0,1.3733578,2861.7825,298.57583)"
       d="M 99.61997,194.46707 A 19.923994,19.923994 0 1 1 59.771982,194.46707 A 19.923994,19.923994 0 1 1 99.61997,194.46707 z"
       sodipodi:ry="19.923994"
       sodipodi:rx="19.923994"
       sodipodi:cy="194.46707"
       sodipodi:cx="79.695976"
       id="path3423"
       style="opacity:1;fill:#ffffff;fill-opacity:0;stroke:#000000;stroke-width:12.90083027;stroke-miterlimit:4;stroke-dasharray:none;stroke-opacity:1"
       sodipodi:type="arc" />
    <path
       transform="matrix(1.3733578,0,0,1.3733578,2756.6269,195.95298)"
       d="M 99.61997,194.46707 A 19.923994,19.923994 0 1 1 59.771982,194.46707 A 19.923994,19.923994 0 1 1 99.61997,194.46707 z"
       sodipodi:ry="19.923994"
       sodipodi:rx="19.923994"
       sodipodi:cy="194.46707"
       sodipodi:cx="79.695976"
       id="path3425"
       style="opacity:1;fill:#ffffff;fill-opacity:0;stroke:#000000;stroke-width:12.90083027;stroke-miterlimit:4;stroke-dasharray:none;stroke-opacity:1"
       sodipodi:type="arc" />
    <path
       transform="matrix(1.3733578,0,0,1.3733578,2976.2881,195.95298)"
       d="M 99.61997,194.46707 A 19.923994,19.923994 0 1 1 59.771982,194.46707 A 19.923994,19.923994 0 1 1 99.61997,194.46707 z"
       sodipodi:ry="19.923994"
       sodipodi:rx="19.923994"
       sodipodi:cy="194.46707"
       sodipodi:cx="79.695976"
       id="path3427"
       style="opacity:1;fill:#ffffff;fill-opacity:0;stroke:#000000;stroke-width:12.90083027;stroke-miterlimit:4;stroke-dasharray:none;stroke-opacity:1"
       sodipodi:type="arc" />
    <g
       id="g3578">
      <path
         style="fill:none;fill-rule:evenodd;stroke:#000000;stroke-width:25;stroke-linecap:butt;stroke-linejoin:miter;stroke-miterlimit:4;stroke-dasharray:none;stroke-opacity:1"
         d="M 2830.852,695.3813 L 3083.2329,695.3813"
         id="path3838" />
      <path
         style="fill:none;fill-rule:evenodd;stroke:#000000;stroke-width:25;stroke-linecap:butt;stroke-linejoin:miter;stroke-miterlimit:4;stroke-dasharray:none;stroke-opacity:0.94117647"
         d="M 101.84289,695.3813 L 506.15718,695.3813"
         id="path3434" />
      <path
         style="fill:none;fill-rule:evenodd;stroke:#000000;stroke-width:25;stroke-linecap:butt;stroke-linejoin:miter;stroke-miterlimit:4;stroke-dasharray:none;stroke-opacity:1"
         d="M 553.73853,695.3813 L 1767.464,695.3813"
         id="path3575" />
      <path
         style="fill:none;fill-rule:evenodd;stroke:#000000;stroke-width:25;stroke-linecap:butt;stroke-linejoin:miter;stroke-miterlimit:4;stroke-dasharray:none;stroke-opacity:1"
         d="M 1814.3361,695.3813 L 2444.4948,695.3813"
         id="path3631" />
      <path
         sodipodi:type="arc"
         style="opacity:1;fill:#ffffff;fill-opacity:0;stroke:#000000;stroke-width:12.90083027;stroke-miterlimit:4;stroke-dasharray:none;stroke-opacity:1"
         id="path3451"
         sodipodi:cx="79.695976"
         sodipodi:cy="194.46707"
         sodipodi:rx="19.923994"
         sodipodi:ry="19.923994"
         d="M 99.61997,194.46707 A 19.923994,19.923994 0 1 1 59.771982,194.46707 A 19.923994,19.923994 0 1 1 99.61997,194.46707 z"
         transform="matrix(1.3733578,0,0,1.3733578,2694.1243,428.30843)" />
      <path
         sodipodi:type="arc"
         style="opacity:1;fill:#ffffff;fill-opacity:0;stroke:#000000;stroke-width:12.90083027;stroke-miterlimit:4;stroke-dasharray:none;stroke-opacity:1"
         id="path3453"
         sodipodi:cx="79.695976"
         sodipodi:cy="194.46707"
         sodipodi:rx="19.923994"
         sodipodi:ry="19.923994"
         d="M 99.61997,194.46707 A 19.923994,19.923994 0 1 1 59.771982,194.46707 A 19.923994,19.923994 0 1 1 99.61997,194.46707 z"
         transform="matrix(1.3733578,0,0,1.3733578,3003.1861,428.30843)" />
      <path
         sodipodi:type="arc"
         style="opacity:1;fill:#ffffff;fill-opacity:0;stroke:#000000;stroke-width:12.90083027;stroke-miterlimit:4;stroke-dasharray:none;stroke-opacity:1"
         id="path3455"
         sodipodi:cx="79.695976"
         sodipodi:cy="194.46707"
         sodipodi:rx="19.923994"
         sodipodi:ry="19.923994"
         d="M 99.61997,194.46707 A 19.923994,19.923994 0 1 1 59.771982,194.46707 A 19.923994,19.923994 0 1 1 99.61997,194.46707 z"
         transform="matrix(1.3733578,0,0,1.3733578,2354.6698,428.30843)" />
      <path
         sodipodi:type="arc"
         style="opacity:1;fill:#ffffff;fill-opacity:0;stroke:#000000;stroke-width:12.90083027;stroke-miterlimit:4;stroke-dasharray:none;stroke-opacity:1"
         id="path3457"
         sodipodi:cx="79.695976"
         sodipodi:cy="194.46707"
         sodipodi:rx="19.923994"
         sodipodi:ry="19.923994"
         d="M 99.61997,194.46707 A 19.923994,19.923994 0 1 1 59.771982,194.46707 A 19.923994,19.923994 0 1 1 99.61997,194.46707 z"
         transform="matrix(1.3733578,0,0,1.3733578,1682.3037,428.30843)" />
      <path
         sodipodi:type="arc"
         style="opacity:1;fill:#ffffff;fill-opacity:0;stroke:#000000;stroke-width:12.90083027;stroke-miterlimit:4;stroke-dasharray:none;stroke-opacity:1"
         id="path3460"
         sodipodi:cx="79.695976"
         sodipodi:cy="194.46707"
         sodipodi:rx="19.923994"
         sodipodi:ry="19.923994"
         d="M 99.61997,194.46707 A 19.923994,19.923994 0 1 1 59.771982,194.46707 A 19.923994,19.923994 0 1 1 99.61997,194.46707 z"
         transform="matrix(1.3733578,0,0,1.3733578,-32.504565,428.30843)" />
      <path
         sodipodi:type="arc"
         style="opacity:1;fill:#ffffff;fill-opacity:0;stroke:#000000;stroke-width:12.90083027;stroke-miterlimit:4;stroke-dasharray:none;stroke-opacity:1"
         id="path3462"
         sodipodi:cx="79.695976"
         sodipodi:cy="194.46707"
         sodipodi:rx="19.923994"
         sodipodi:ry="19.923994"
         d="M 99.61997,194.46707 A 19.923994,19.923994 0 1 1 59.771982,194.46707 A 19.923994,19.923994 0 1 1 99.61997,194.46707 z"
         transform="matrix(1.3733578,0,0,1.3733578,426.16481,428.30843)" />
    </g>
    <path
       transform="matrix(1.3733578,0,0,1.3733578,2035.8913,865.96837)"
       d="M 99.61997,194.46707 A 19.923994,19.923994 0 1 1 59.771982,194.46707 A 19.923994,19.923994 0 1 1 99.61997,194.46707 z"
       sodipodi:ry="19.923994"
       sodipodi:rx="19.923994"
       sodipodi:cy="194.46707"
       sodipodi:cx="79.695976"
       id="path3554"
       style="opacity:1;fill:#ffffff;fill-opacity:0;stroke:#000000;stroke-width:12.90083027;stroke-miterlimit:4;stroke-dasharray:none;stroke-opacity:1"
       sodipodi:type="arc" />
    <path
       transform="matrix(1.3733578,0,0,1.3733578,2173.6599,865.96837)"
       d="M 99.61997,194.46707 A 19.923994,19.923994 0 1 1 59.771982,194.46707 A 19.923994,19.923994 0 1 1 99.61997,194.46707 z"
       sodipodi:ry="19.923994"
       sodipodi:rx="19.923994"
       sodipodi:cy="194.46707"
       sodipodi:cx="79.695976"
       id="path3556"
       style="opacity:1;fill:#ffffff;fill-opacity:0;stroke:#000000;stroke-width:12.90083027;stroke-miterlimit:4;stroke-dasharray:none;stroke-opacity:1"
       sodipodi:type="arc" />
    <path
       transform="matrix(1.3733578,0,0,1.3733578,2037.1773,548.1048)"
       d="M 99.61997,194.46707 A 19.923994,19.923994 0 1 1 59.771982,194.46707 A 19.923994,19.923994 0 1 1 99.61997,194.46707 z"
       sodipodi:ry="19.923994"
       sodipodi:rx="19.923994"
       sodipodi:cy="194.46707"
       sodipodi:cx="79.695976"
       id="path3558"
       style="opacity:1;fill:#ffffff;fill-opacity:0;stroke:#000000;stroke-width:12.90083027;stroke-miterlimit:4;stroke-dasharray:none;stroke-opacity:1"
       sodipodi:type="arc" />
    <path
       transform="matrix(1.3733578,0,0,1.3733578,2321.6927,548.1048)"
       d="M 99.61997,194.46707 A 19.923994,19.923994 0 1 1 59.771982,194.46707 A 19.923994,19.923994 0 1 1 99.61997,194.46707 z"
       sodipodi:ry="19.923994"
       sodipodi:rx="19.923994"
       sodipodi:cy="194.46707"
       sodipodi:cx="79.695976"
       id="path3560"
       style="opacity:1;fill:#ffffff;fill-opacity:0;stroke:#000000;stroke-width:12.90083027;stroke-miterlimit:4;stroke-dasharray:none;stroke-opacity:1"
       sodipodi:type="arc" />
    <path
       transform="matrix(1.3733578,0,0,1.3733578,2323.5248,865.96837)"
       d="M 99.61997,194.46707 A 19.923994,19.923994 0 1 1 59.771982,194.46707 A 19.923994,19.923994 0 1 1 99.61997,194.46707 z"
       sodipodi:ry="19.923994"
       sodipodi:rx="19.923994"
       sodipodi:cy="194.46707"
       sodipodi:cx="79.695976"
       id="path3563"
       style="opacity:1;fill:#ffffff;fill-opacity:0;stroke:#000000;stroke-width:12.90083027;stroke-miterlimit:4;stroke-dasharray:none;stroke-opacity:1"
       sodipodi:type="arc" />
    <path
       transform="matrix(1.3733578,0,0,1.3733578,2533.4797,865.96837)"
       d="M 99.61997,194.46707 A 19.923994,19.923994 0 1 1 59.771982,194.46707 A 19.923994,19.923994 0 1 1 99.61997,194.46707 z"
       sodipodi:ry="19.923994"
       sodipodi:rx="19.923994"
       sodipodi:cy="194.46707"
       sodipodi:cx="79.695976"
       id="path3565"
       style="opacity:1;fill:#ffffff;fill-opacity:0;stroke:#000000;stroke-width:12.90083027;stroke-miterlimit:4;stroke-dasharray:none;stroke-opacity:1"
       sodipodi:type="arc" />
    <path
       transform="matrix(1.3733578,0,0,1.3733578,2533.4797,548.1048)"
       d="M 99.61997,194.46707 A 19.923994,19.923994 0 1 1 59.771982,194.46707 A 19.923994,19.923994 0 1 1 99.61997,194.46707 z"
       sodipodi:ry="19.923994"
       sodipodi:rx="19.923994"
       sodipodi:cy="194.46707"
       sodipodi:cx="79.695976"
       id="path3567"
       style="opacity:1;fill:#ffffff;fill-opacity:0;stroke:#000000;stroke-width:12.90083027;stroke-miterlimit:4;stroke-dasharray:none;stroke-opacity:1"
       sodipodi:type="arc" />
    <path
       transform="matrix(1.3733578,0,0,1.3733578,2748.5626,548.1048)"
       d="M 99.61997,194.46707 A 19.923994,19.923994 0 1 1 59.771982,194.46707 A 19.923994,19.923994 0 1 1 99.61997,194.46707 z"
       sodipodi:ry="19.923994"
       sodipodi:rx="19.923994"
       sodipodi:cy="194.46707"
       sodipodi:cx="79.695976"
       id="path3569"
       style="opacity:1;fill:#ffffff;fill-opacity:0;stroke:#000000;stroke-width:12.90083027;stroke-miterlimit:4;stroke-dasharray:none;stroke-opacity:1"
       sodipodi:type="arc" />
    <path
       transform="matrix(1.3733578,0,0,1.3733578,2677.2983,693.47971)"
       d="M 99.61997,194.46707 A 19.923994,19.923994 0 1 1 59.771982,194.46707 A 19.923994,19.923994 0 1 1 99.61997,194.46707 z"
       sodipodi:ry="19.923994"
       sodipodi:rx="19.923994"
       sodipodi:cy="194.46707"
       sodipodi:cx="79.695976"
       id="path3571"
       style="opacity:1;fill:#ffffff;fill-opacity:0;stroke:#000000;stroke-width:12.90083027;stroke-miterlimit:4;stroke-dasharray:none;stroke-opacity:1"
       sodipodi:type="arc" />
    <path
       transform="matrix(1.3733578,0,0,1.3733578,2822.3913,693.47971)"
       d="M 99.61997,194.46707 A 19.923994,19.923994 0 1 1 59.771982,194.46707 A 19.923994,19.923994 0 1 1 99.61997,194.46707 z"
       sodipodi:ry="19.923994"
       sodipodi:rx="19.923994"
       sodipodi:cy="194.46707"
       sodipodi:cx="79.695976"
       id="path3573"
       style="opacity:1;fill:#ffffff;fill-opacity:0;stroke:#000000;stroke-width:12.90083027;stroke-miterlimit:4;stroke-dasharray:none;stroke-opacity:1"
       sodipodi:type="arc" />
    <path
       transform="matrix(1.3733578,0,0,1.3733578,2745.8165,865.96837)"
       d="M 99.61997,194.46707 A 19.923994,19.923994 0 1 1 59.771982,194.46707 A 19.923994,19.923994 0 1 1 99.61997,194.46707 z"
       sodipodi:ry="19.923994"
       sodipodi:rx="19.923994"
       sodipodi:cy="194.46707"
       sodipodi:cx="79.695976"
       id="path3576"
       style="opacity:1;fill:#ffffff;fill-opacity:0;stroke:#000000;stroke-width:12.90083027;stroke-miterlimit:4;stroke-dasharray:none;stroke-opacity:1"
       sodipodi:type="arc" />
    <path
       sodipodi:nodetypes="cssssssssc"
       id="path2460"
       d="M 102.5641,192.81243 C 102.5641,192.81243 133.89829,193.52269 153.84615,192.81243 C 166.00106,192.37964 182.29292,198.73124 192.30769,205.63294 C 201.30985,211.8368 211.20081,223.73746 215.38462,233.83807 C 221.30142,248.12249 220.15643,269.66288 220.51282,285.12012 C 221.79938,340.91988 221.5873,418.27487 220.51282,477.42782 C 220.30141,489.06647 221.53734,504.99611 225.64103,515.88935 C 230.52979,528.86655 239.78352,546.59902 251.28205,554.35089 C 266.75746,564.78382 293.54657,566.82824 312.21002,566.9272 C 342.94176,567.09016 420.51282,567.1714 420.51282,567.1714"
       style="fill:none;fill-rule:evenodd;stroke:#000000;stroke-width:25;stroke-linecap:butt;stroke-linejoin:miter;stroke-opacity:1;stroke-miterlimit:4;stroke-dasharray:none" />
  </g>
</svg>
