<?xml version="1.0" encoding="UTF-8" standalone="no"?>
<!-- Created with Sodipodi ("http://www.sodipodi.com/") -->
<svg
   xmlns:dc="http://purl.org/dc/elements/1.1/"
   xmlns:cc="http://creativecommons.org/ns#"
   xmlns:rdf="http://www.w3.org/1999/02/22-rdf-syntax-ns#"
   xmlns:svg="http://www.w3.org/2000/svg"
   xmlns="http://www.w3.org/2000/svg"
   xmlns:sodipodi="http://sodipodi.sourceforge.net/DTD/sodipodi-0.dtd"
   xmlns:inkscape="http://www.inkscape.org/namespaces/inkscape"
   id="svg602"
   sodipodi:version="0.32"
   width="696.79138"
   height="696.79138"
   xml:space="preserve"
   sodipodi:docname="LaborLogoOnly.svg"
   inkscape:version="0.46"
   sodipodi:docbase="/home/joerg/Desktop/bildas"
   inkscape:output_extension="org.inkscape.output.svg.inkscape"
   version="1.0">
  <metadata
   id="metadata26">
    <rdf:RDF>
      <cc:Work
   rdf:about="">
        <dc:format>image/svg+xml</dc:format>


        <dc:type
   rdf:resource="http://purl.org/dc/dcmitype/StillImage" />


      </cc:Work>


    </rdf:RDF>


  </metadata>


  <defs
   id="defs604"><inkscape:perspective
     sodipodi:type="inkscape:persp3d"
     inkscape:vp_x="0 : 526.25 : 1"
     inkscape:vp_y="0 : 1000 : 0"
     inkscape:vp_z="743.75 : 526.25 : 1"
     inkscape:persp3d-origin="371.875 : 350.83333 : 1"
     id="perspective9" /></defs>


  <sodipodi:namedview
   id="base"
   showgrid="false"
   inkscape:grid-bbox="true"
   showguides="true"
   inkscape:guide-bbox="true"
   showborder="true"
   inkscape:grid-points="false"
   inkscape:guide-points="true"
   inkscape:zoom="0.5"
   inkscape:cx="5.329595"
   inkscape:cy="508.42359"
   inkscape:window-width="1680"
   inkscape:window-height="1010"
   inkscape:window-x="-2"
   inkscape:window-y="-2"
   inkscape:current-layer="svg602"
   pagecolor="#000000"
   inkscape:pageopacity="0.0000000"
   gridtolerance="5.0000000px"><inkscape:grid
     id="GridFromPre046Settings"
     type="xygrid"
     originx="0px"
     originy="0px"
     spacingx="5.0000000mm"
     spacingy="5.0000000mm"
     color="#0000ff"
     empcolor="#0000ff"
     opacity="0.2"
     empopacity="0.4"
     empspacing="10"
     units="mm"
     visible="true"
     enabled="true" /></sodipodi:namedview>


  
  
<path
   sodipodi:type="arc"
   style="opacity:1;fill:#ffffff;fill-opacity:1;stroke:none;stroke-width:21.25;stroke-linecap:butt;stroke-miterlimit:4;stroke-dasharray:none;stroke-opacity:1"
   id="path3174"
   sodipodi:cx="-326"
   sodipodi:cy="191.5"
   sodipodi:rx="159"
   sodipodi:ry="159"
   d="M -167,191.5 A 159,159 0 1 1 -485,191.5 A 159,159 0 1 1 -167,191.5 z"
   transform="matrix(2.1911678,0,0,2.1911678,1062.7164,-71.212954)" />














<path
   style="fill:#000000;fill-opacity:1;fill-rule:evenodd;stroke:none;stroke-width:1.25;stroke-linecap:butt;stroke-linejoin:miter;stroke-miterlimit:4;stroke-dashoffset:0;stroke-opacity:1"
   d="M 347.20672,11.781507 C 324.39332,11.903203 302.11729,14.379547 280.59727,18.876478 C 276.41635,19.75017 272.40884,21.023919 268.28673,22.053148 C 127.97137,56.401863 22.036621,178.41953 12.564011,326.78391 L 81.822313,326.78391 L 81.822313,254.88345 L 94.584373,254.88345 L 132.84041,254.88345 L 132.84041,214.36142 C 125.52312,212.09324 120.13854,205.51418 120.13854,197.44035 C 120.13854,187.51654 128.11359,179.50965 138.01736,179.50965 C 147.92142,179.50965 155.98661,187.51654 155.98661,197.44035 C 155.98661,204.62842 151.6915,210.71365 145.60247,213.58964 L 145.60247,254.88345 L 178.74174,254.88345 C 181.23685,247.95991 187.74044,242.9495 195.50678,242.9495 C 205.41082,242.9495 213.38574,250.95639 213.38574,260.88005 C 213.38574,270.80387 205.41082,278.8701 195.50678,278.8701 C 187.72272,278.8701 181.2238,273.82459 178.74174,266.87665 L 94.584373,266.87665 L 94.584373,326.78391 L 126.51944,326.78391 L 136.57257,326.78391 L 139.22131,326.78391 L 139.22131,422.73023 L 178.74174,422.73023 C 181.2238,415.78257 187.72272,410.70736 195.50678,410.70736 C 205.41082,410.70736 213.38574,418.80316 213.38574,428.72696 C 213.38574,438.65091 205.41082,446.65766 195.50678,446.65766 C 187.71983,446.65766 181.2216,441.6162 178.74174,434.66434 L 71.829221,434.66434 C 69.348951,441.61539 62.910631,446.65766 55.124371,446.65766 C 45.220331,446.65766 37.185231,438.65091 37.185231,428.72696 C 37.185231,418.80316 45.220331,410.70736 55.124371,410.70736 C 62.907611,410.70736 69.346761,415.78338 71.829221,422.73023 L 126.51944,422.73023 L 126.51944,338.80678 L 94.584373,338.80678 L 81.822313,338.80678 L 11.992271,338.80678 C 11.901311,342.01466 11.781501,345.22524 11.781501,348.45495 C 11.781501,515.7553 134.33824,654.23721 294.47298,680.11164 C 311.69102,682.95823 329.21247,684.91377 347.20672,685.00985 L 347.20672,684.77216 C 347.60889,684.77363 347.9781,684.83164 348.38042,684.83164 C 534.19066,684.83164 685.00984,534.14758 685.00984,348.45495 C 685.00984,162.7623 534.19066,12.019072 348.38042,12.019072 C 347.9781,12.019072 347.60889,12.077074 347.20672,12.078294 L 347.20672,11.781507 z M 348.38042,22.824937 C 528.75553,22.824937 675.16748,168.84685 675.16748,348.81136 C 675.16721,528.77559 528.75553,674.79752 348.38042,674.79752 C 347.97796,674.79779 347.60903,674.73966 347.20672,674.73844 L 347.20672,584.78844 L 280.89818,584.78844 L 280.89818,280.82944 L 347.20672,280.82944 L 347.20672,246.6306 C 310.77015,245.91356 281.37979,216.22752 281.37979,179.56901 C 281.37979,142.91063 310.77015,113.13499 347.20672,112.41837 L 347.20672,22.884282 C 347.60903,22.882803 347.97796,22.824937 348.38042,22.824937 z M 347.20672,112.41837 L 347.20672,121.82897 C 347.75427,121.81338 348.25058,121.65089 348.80184,121.65089 C 380.30642,121.65089 405.86996,147.36054 405.86996,179.03465 C 405.86996,210.70877 380.30642,236.44809 348.80184,236.44809 C 348.25058,236.44809 347.75427,236.28574 347.20672,236.27016 L 347.20672,246.6306 C 347.653,246.63941 348.05272,246.74945 348.50092,246.74945 C 385.55607,246.74945 415.65228,216.67664 415.65228,179.56901 C 415.65228,142.46151 385.55607,112.29952 348.50092,112.29952 C 348.05272,112.29952 347.653,112.40956 347.20672,112.41837 z M 347.20672,236.27016 L 347.20672,121.82897 C 316.46333,122.70659 291.73397,147.91494 291.73397,179.03465 C 291.73397,210.15436 316.46347,235.39171 347.20672,236.27016 z M 347.20672,280.82944 L 347.20672,291.66476 L 403.79325,291.66476 L 403.79325,573.95299 L 347.20672,573.95299 L 347.20672,584.78844 L 416.04347,584.78844 L 416.04347,280.82944 L 347.20672,280.82944 z M 347.20672,573.95299 L 347.20672,291.66476 L 293.23882,291.66476 L 293.23882,573.95299 L 347.20672,573.95299 z"
   id="path4853" />








</svg>