<?xml version="1.0" encoding="UTF-8" standalone="no"?>
<!-- Created with Inkscape (http://www.inkscape.org/) -->

<svg
   xmlns:dc="http://purl.org/dc/elements/1.1/"
   xmlns:cc="http://creativecommons.org/ns#"
   xmlns:rdf="http://www.w3.org/1999/02/22-rdf-syntax-ns#"
   xmlns:svg="http://www.w3.org/2000/svg"
   xmlns="http://www.w3.org/2000/svg"
   version="1.1"
   width="209.90279mm"
   height="297.03888mm"
   id="svg602"
   xml:space="preserve">
  <metadata
   id="metadata26">
    <rdf:RDF>
      <cc:Work
   rdf:about="">
        <dc:format>image/svg+xml</dc:format>


        <dc:type
   rdf:resource="http://purl.org/dc/dcmitype/StillImage" />


      <dc:title></dc:title></cc:Work>


    </rdf:RDF>


  </metadata>


  <defs
   id="defs604" />


  


  
  
<path
   d="m -167,191.5 a 159,159 0 1 1 -318,0 159,159 0 1 1 318,0 z"
   transform="matrix(2.1911678,0,0,2.1911678,1085.1601,-41.414425)"
   id="path3174"
   style="fill:#ffffff;fill-opacity:1;stroke:none" />















<path
   d="m 373.6504,35.58004 c -22.8134,0.12169 -45.0894,2.59804 -66.60941,7.09497 -4.18092,0.87369 -8.18843,2.14744 -12.31054,3.17667 C 154.41509,80.20039 48.48034,202.21806 39.00773,350.58244 l 69.2583,0 0,-71.90046 12.76206,0 38.25604,0 0,-40.52203 c -7.31729,-2.26818 -12.70187,-8.84724 -12.70187,-16.92107 0,-9.92381 7.97505,-17.9307 17.87882,-17.9307 9.90406,0 17.96925,8.00689 17.96925,17.9307 0,7.18807 -4.29511,13.2733 -10.38414,16.14929 l 0,41.29381 33.13927,0 c 2.49511,-6.92354 8.9987,-11.93395 16.76504,-11.93395 9.90404,0 17.87896,8.00689 17.87896,17.93055 0,9.92382 -7.97492,17.99005 -17.87896,17.99005 -7.78406,0 -14.28298,-5.04551 -16.76504,-11.99345 l -84.15737,0 0,59.90726 31.93507,0 10.05313,0 2.64874,0 0,95.94632 39.52043,0 c 2.48206,-6.94766 8.98098,-12.02287 16.76504,-12.02287 9.90404,0 17.87896,8.0958 17.87896,18.0196 0,9.92395 -7.97492,17.9307 -17.87896,17.9307 -7.78695,0 -14.28518,-5.04146 -16.76504,-11.99332 l -106.91252,0 c -2.48027,6.95105 -8.91859,11.99332 -16.70485,11.99332 -9.90404,0 -17.93914,-8.00675 -17.93914,-17.9307 0,-9.9238 8.0351,-18.0196 17.93914,-18.0196 7.78324,0 14.22239,5.07602 16.70485,12.02287 l 54.69022,0 0,-83.92345 -31.93507,0 -12.76206,0 -69.83004,0 c -0.091,3.20788 -0.21077,6.41846 -0.21077,9.64817 0,167.30035 122.55674,305.78226 282.69148,331.65669 17.218,2.84659 34.7395,4.80213 52.7337,4.89821 l 0,-0.23769 c 0.4022,10e-4 0.7714,0.0595 1.1737,0.0595 185.8103,0 336.6295,-150.68406 336.6295,-336.37669 0,-185.69265 -150.8192,-336.43588 -336.6295,-336.43588 -0.4023,0 -0.7715,0.058 -1.1737,0.0592 l 0,-0.29679 z m 1.1737,11.04343 c 180.3752,0 326.7871,146.02191 326.7871,325.98642 -3e-4,179.96423 -146.4119,325.98616 -326.7871,325.98616 -0.4024,2.7e-4 -0.7713,-0.0579 -1.1737,-0.0591 l 0,-89.95 -66.3085,0 0,-303.959 66.3085,0 0,-34.19884 c -36.4365,-0.71704 -65.82689,-30.40308 -65.82689,-67.06159 0,-36.65838 29.39039,-66.43402 65.82689,-67.15064 l 0,-89.53409 c 0.4023,-10e-4 0.7713,-0.0593 1.1737,-0.0593 z m -1.1737,89.59343 0,9.4106 c 0.5476,-0.0156 1.0439,-0.17808 1.5952,-0.17808 31.5045,0 57.0681,25.70965 57.0681,57.38376 0,31.67412 -25.5636,57.41344 -57.0681,57.41344 -0.5513,0 -1.0476,-0.16235 -1.5952,-0.17793 l 0,10.36044 c 0.4463,0.009 0.846,0.11885 1.2942,0.11885 37.0552,0 67.1514,-30.07281 67.1514,-67.18044 0,-37.1075 -30.0962,-67.26949 -67.1514,-67.26949 -0.4482,0 -0.8479,0.11004 -1.2942,0.11885 z m 0,123.85179 0,-114.44119 c -30.7433,0.87762 -55.47271,26.08597 -55.47271,57.20568 0,31.11971 24.72951,56.35706 55.47271,57.23551 z m 0,44.55928 0,10.83532 56.5866,0 0,282.28823 -56.5866,0 0,10.83545 68.8368,0 0,-303.959 -68.8368,0 z m 0,293.12355 0,-282.28823 -53.96786,0 0,282.28823 53.96786,0 z"
   id="path4853"
   style="fill:#000000;fill-opacity:1;fill-rule:evenodd;stroke:none" />








</svg>