999
DXF created by Inkscape
  0
SECTION
  2
HEADER
  9
$ACADVER
  1
AC1014
  9
$HANDSEED
  5
FFFF
  9
$MEASUREMENT
 70
     1
  0
ENDSEC
  0
SECTION
  2
TABLES
  0
TABLE
  2
VPORT
  5
8
330
0
100
AcDbSymbolTable
 70
     4
  0
VPORT
  5
2E
330
8
100
AcDbSymbolTableRecord
100
AcDbViewportTableRecord
  2
*ACTIVE
 70
     0
 10
0.0
 20
0.0
 11
1.0
 21
1.0
 12
210.0
 22
148.5
 13
0.0
 23
0.0
 14
10.0
 24
10.0
 15
10.0
 25
10.0
 16
0.0
 26
0.0
 36
1.0
 17
0.0
 27
0.0
 37
0.0
 40
341.0
 41
1.24
 42
50.0
 43
0.0
 44
0.0
 50
0.0
 51
0.0
 71
     0
 72
   100
 73
     1
 74
     3
 75
     0
 76
     0
 77
     0
 78
     0
  0
ENDTAB
  0
TABLE
  2
LTYPE
  5
5
330
0
100
AcDbSymbolTable
 70
     1
  0
LTYPE
  5
14
330
5
100
AcDbSymbolTableRecord
100
AcDbLinetypeTableRecord
  2
BYBLOCK
 70
     0
  3

 72
    65
 73
     0
 40
0.0
  0
LTYPE
  5
15
330
5
100
AcDbSymbolTableRecord
100
AcDbLinetypeTableRecord
  2
BYLAYER
 70
     0
  3

 72
    65
 73
     0
 40
0.0
  0
LTYPE
  5
16
330
5
100
AcDbSymbolTableRecord
100
AcDbLinetypeTableRecord
  2
CONTINUOUS
 70
     0
  3
Solid line
 72
    65
 73
     0
 40
0.0
  0
ENDTAB
  0
TABLE
  2
LAYER
  5
2
330
0
100
AcDbSymbolTable
 70
1
  0
LAYER
  5
10
330
2
100
AcDbSymbolTableRecord
100
AcDbLayerTableRecord
  2
0
 70
     0
 62
     7
  6
CONTINUOUS
  0
ENDTAB
  0
TABLE
  2
STYLE
  5
3
330
0
100
AcDbSymbolTable
 70
     1
  0
STYLE
  5
11
330
3
100
AcDbSymbolTableRecord
100
AcDbTextStyleTableRecord
  2
STANDARD
 70
     0
 40
0.0
 41
1.0
 50
0.0
 71
     0
 42
2.5
  3
txt
  4

  0
ENDTAB
  0
TABLE
  2
VIEW
  5
6
330
0
100
AcDbSymbolTable
 70
     0
  0
ENDTAB
  0
TABLE
  2
UCS
  5
7
330
0
100
AcDbSymbolTable
 70
     0
  0
ENDTAB
  0
TABLE
  2
APPID
  5
9
330
0
100
AcDbSymbolTable
 70
     2
  0
APPID
  5
12
330
9
100
AcDbSymbolTableRecord
100
AcDbRegAppTableRecord
  2
ACAD
 70
     0
  0
ENDTAB
  0
TABLE
  2
DIMSTYLE
  5
A
330
0
100
AcDbSymbolTable
 70
     1
  0
DIMSTYLE
105
27
330
A
100
AcDbSymbolTableRecord
100
AcDbDimStyleTableRecord
  2
ISO-25
 70
     0
  3

  4

  5

  6

  7

 40
1.0
 41
2.5
 42
0.625
 43
3.75
 44
1.25
 45
0.0
 46
0.0
 47
0.0
 48
0.0
140
2.5
141
2.5
142
0.0
143
0.03937007874016
144
1.0
145
0.0
146
1.0
147
0.625
 71
     0
 72
     0
 73
     0
 74
     0
 75
     0
 76
     0
 77
     1
 78
     8
170
     0
171
     3
172
     1
173
     0
174
     0
175
     0
176
     0
177
     0
178
     0
270
     2
271
     2
272
     2
273
     2
274
     3
340
11
275
     0
280
     0
281
     0
282
     0
283
     0
284
     8
285
     0
286
     0
287
     3
288
     0
  0
ENDTAB
  0
TABLE
  2
BLOCK_RECORD
  5
1
330
0
100
AcDbSymbolTable
 70
     1
  0
BLOCK_RECORD
  5
1F
330
1
100
AcDbSymbolTableRecord
100
AcDbBlockTableRecord
  2
*MODEL_SPACE
  0
BLOCK_RECORD
  5
1B
330
1
100
AcDbSymbolTableRecord
100
AcDbBlockTableRecord
  2
*PAPER_SPACE
  0
ENDTAB
  0
ENDSEC
  0
SECTION
  2
BLOCKS
  0
BLOCK
  5
20
330
1F
100
AcDbEntity
  8
0
100
AcDbBlockBegin
  2
*MODEL_SPACE
 70
     0
 10
0.0
 20
0.0
 30
0.0
  3
*MODEL_SPACE
  1

  0
ENDBLK
  5
21
330
1F
100
AcDbEntity
  8
0
100
AcDbBlockEnd
  0
BLOCK
  5
1C
330
1B
100
AcDbEntity
 67
     1
  8
0
100
AcDbBlockBegin
  2
*PAPER_SPACE
  1

  0
ENDBLK
  5
1D
330
1B
100
AcDbEntity
 67
     1
  8
0
100
AcDbBlockEnd
  0
ENDSEC
  0
SECTION
  2
ENTITIES
  0
SPLINE
  5
100
100
AcDbEntity
  8
0
 62
7
100
AcDbSpline
 70
8
 71
3
 72
8
 73
4
 74
0
 40
0
 40
0
 40
0
 40
0
 40
1
 40
1
 40
1
 40
1
 10
-47.131111
 20
142.604456
 30
0.0
 10
-47.131111
 20
126.572758
 30
0.0
 10
-55.683920
 20
111.758858
 30
0.0
 10
-69.567777
 20
103.743009
 30
0.0
  0
SPLINE
  5
101
100
AcDbEntity
  8
0
 62
7
100
AcDbSpline
 70
8
 71
3
 72
8
 73
4
 74
0
 40
0
 40
0
 40
0
 40
0
 40
1
 40
1
 40
1
 40
1
 10
-69.567777
 20
103.743009
 30
0.0
 10
-83.451635
 20
95.727160
 30
0.0
 10
-100.557253
 20
95.727160
 30
0.0
 10
-114.441111
 20
103.743009
 30
0.0
  0
SPLINE
  5
102
100
AcDbEntity
  8
0
 62
7
100
AcDbSpline
 70
8
 71
3
 72
8
 73
4
 74
0
 40
0
 40
0
 40
0
 40
0
 40
1
 40
1
 40
1
 40
1
 10
-114.441111
 20
103.743009
 30
0.0
 10
-128.324969
 20
111.758858
 30
0.0
 10
-136.877778
 20
126.572757
 30
0.0
 10
-136.877778
 20
142.604456
 30
0.0
  0
SPLINE
  5
103
100
AcDbEntity
  8
0
 62
7
100
AcDbSpline
 70
8
 71
3
 72
8
 73
4
 74
0
 40
0
 40
0
 40
0
 40
0
 40
1
 40
1
 40
1
 40
1
 10
-136.877778
 20
142.604456
 30
0.0
 10
-136.877778
 20
158.636154
 30
0.0
 10
-128.324969
 20
173.450054
 30
0.0
 10
-114.441112
 20
181.465903
 30
0.0
  0
SPLINE
  5
104
100
AcDbEntity
  8
0
 62
7
100
AcDbSpline
 70
8
 71
3
 72
8
 73
4
 74
0
 40
0
 40
0
 40
0
 40
0
 40
1
 40
1
 40
1
 40
1
 10
-114.441112
 20
181.465903
 30
0.0
 10
-100.557254
 20
189.481752
 30
0.0
 10
-83.451636
 20
189.481752
 30
0.0
 10
-69.567778
 20
181.465903
 30
0.0
  0
SPLINE
  5
105
100
AcDbEntity
  8
0
 62
7
100
AcDbSpline
 70
8
 71
3
 72
8
 73
4
 74
0
 40
0
 40
0
 40
0
 40
0
 40
1
 40
1
 40
1
 40
1
 10
-69.567778
 20
181.465903
 30
0.0
 10
-55.683920
 20
173.450054
 30
0.0
 10
-47.131111
 20
158.636154
 30
0.0
 10
-47.131111
 20
142.604456
 30
0.0
  0
SPLINE
  5
106
100
AcDbEntity
  8
0
 62
7
100
AcDbSpline
 70
8
 71
3
 72
8
 73
4
 74
0
 40
0
 40
0
 40
0
 40
0
 40
1
 40
1
 40
1
 40
1
 10
97.989452
 20
193.325009
 30
0.0
 10
91.551004
 20
193.290663
 30
0.0
 10
85.264213
 20
192.591784
 30
0.0
 10
79.190785
 20
191.322650
 30
0.0
  0
SPLINE
  5
107
100
AcDbEntity
  8
0
 62
7
100
AcDbSpline
 70
8
 71
3
 72
8
 73
4
 74
0
 40
0
 40
0
 40
0
 40
0
 40
1
 40
1
 40
1
 40
1
 10
79.190785
 20
191.322650
 30
0.0
 10
78.010837
 20
191.076075
 30
0.0
 10
76.879828
 20
190.716595
 30
0.0
 10
75.716477
 20
190.426123
 30
0.0
  0
SPLINE
  5
108
100
AcDbEntity
  8
0
 62
7
100
AcDbSpline
 70
8
 71
3
 72
8
 73
4
 74
0
 40
0
 40
0
 40
0
 40
0
 40
1
 40
1
 40
1
 40
1
 10
75.716477
 20
190.426123
 30
0.0
 10
36.116364
 20
180.732153
 30
0.0
 10
6.219224
 20
146.296055
 30
0.0
 10
3.545843
 20
104.424330
 30
0.0
  0
LWPOLYLINE
  5
109
100
AcDbEntity
  8
0
 62
7
100
AcDbPolyline
 90
2
 70
0
 10
-47.131111
 20
142.604456
 30
0.0
 10
-47.131111
 20
142.604456
 30
0.0
  0
SPLINE
  5
10a
100
AcDbEntity
  8
0
 62
7
100
AcDbSpline
 70
8
 71
3
 72
8
 73
4
 74
0
 40
0
 40
0
 40
0
 40
0
 40
1
 40
1
 40
1
 40
1
 10
37.490516
 20
136.152455
 30
0.0
 10
35.425414
 20
136.792586
 30
0.0
 10
33.905766
 20
138.649343
 30
0.0
 10
33.905766
 20
140.927957
 30
0.0
  0
SPLINE
  5
10b
100
AcDbEntity
  8
0
 62
7
100
AcDbSpline
 70
8
 71
3
 72
8
 73
4
 74
0
 40
0
 40
0
 40
0
 40
0
 40
1
 40
1
 40
1
 40
1
 10
33.905766
 20
140.927957
 30
0.0
 10
33.905766
 20
143.728677
 30
0.0
 10
36.156502
 20
145.988399
 30
0.0
 10
38.951566
 20
145.988399
 30
0.0
  0
SPLINE
  5
10c
100
AcDbEntity
  8
0
 62
7
100
AcDbSpline
 70
8
 71
3
 72
8
 73
4
 74
0
 40
0
 40
0
 40
0
 40
0
 40
1
 40
1
 40
1
 40
1
 10
38.951566
 20
145.988399
 30
0.0
 10
41.746712
 20
145.988399
 30
0.0
 10
44.022888
 20
143.728677
 30
0.0
 10
44.022888
 20
140.927957
 30
0.0
  0
SPLINE
  5
10d
100
AcDbEntity
  8
0
 62
7
100
AcDbSpline
 70
8
 71
3
 72
8
 73
4
 74
0
 40
0
 40
0
 40
0
 40
0
 40
1
 40
1
 40
1
 40
1
 10
44.022888
 20
140.927957
 30
0.0
 10
44.022888
 20
138.899324
 30
0.0
 10
42.810712
 20
137.181937
 30
0.0
 10
41.092253
 20
136.370269
 30
0.0
  0
LWPOLYLINE
  5
10e
100
AcDbEntity
  8
0
 62
7
100
AcDbPolyline
 90
6
 70
0
 10
3.545843
 20
104.424330
 30
0.0
 10
23.092075
 20
104.424330
 30
0.0
 10
23.092075
 20
124.716238
 30
0.0
 10
26.693812
 20
124.716238
 30
0.0
 10
37.490516
 20
124.716238
 30
0.0
 10
37.490516
 20
136.152455
 30
0.0
  0
SPLINE
  5
10f
100
AcDbEntity
  8
0
 62
7
100
AcDbSpline
 70
8
 71
3
 72
8
 73
4
 74
0
 40
0
 40
0
 40
0
 40
0
 40
1
 40
1
 40
1
 40
1
 10
50.444891
 20
124.716238
 30
0.0
 10
51.149067
 20
126.670215
 30
0.0
 10
52.984524
 20
128.084264
 30
0.0
 10
55.176358
 20
128.084264
 30
0.0
  0
SPLINE
  5
110
100
AcDbEntity
  8
0
 62
7
100
AcDbSpline
 70
8
 71
3
 72
8
 73
4
 74
0
 40
0
 40
0
 40
0
 40
0
 40
1
 40
1
 40
1
 40
1
 10
55.176358
 20
128.084264
 30
0.0
 10
57.971498
 20
128.084264
 30
0.0
 10
60.222198
 20
125.824542
 30
0.0
 10
60.222198
 20
123.023864
 30
0.0
  0
SPLINE
  5
111
100
AcDbEntity
  8
0
 62
7
100
AcDbSpline
 70
8
 71
3
 72
8
 73
4
 74
0
 40
0
 40
0
 40
0
 40
0
 40
1
 40
1
 40
1
 40
1
 10
60.222198
 20
123.023864
 30
0.0
 10
60.222198
 20
120.223142
 30
0.0
 10
57.971498
 20
117.946672
 30
0.0
 10
55.176358
 20
117.946672
 30
0.0
  0
SPLINE
  5
112
100
AcDbEntity
  8
0
 62
7
100
AcDbSpline
 70
8
 71
3
 72
8
 73
4
 74
0
 40
0
 40
0
 40
0
 40
0
 40
1
 40
1
 40
1
 40
1
 10
55.176358
 20
117.946672
 30
0.0
 10
52.979523
 20
117.946672
 30
0.0
 10
51.145384
 20
119.370627
 30
0.0
 10
50.444891
 20
121.331490
 30
0.0
  0
LWPOLYLINE
  5
113
100
AcDbEntity
  8
0
 62
7
100
AcDbPolyline
 90
3
 70
0
 10
41.092253
 20
136.370269
 30
0.0
 10
41.092253
 20
124.716238
 30
0.0
 10
50.444891
 20
124.716238
 30
0.0
  0
SPLINE
  5
114
100
AcDbEntity
  8
0
 62
7
100
AcDbSpline
 70
8
 71
3
 72
8
 73
4
 74
0
 40
0
 40
0
 40
0
 40
0
 40
1
 40
1
 40
1
 40
1
 10
50.444891
 20
77.346147
 30
0.0
 10
51.145384
 20
79.306931
 30
0.0
 10
52.979523
 20
80.739268
 30
0.0
 10
55.176358
 20
80.739268
 30
0.0
  0
SPLINE
  5
115
100
AcDbEntity
  8
0
 62
7
100
AcDbSpline
 70
8
 71
3
 72
8
 73
4
 74
0
 40
0
 40
0
 40
0
 40
0
 40
1
 40
1
 40
1
 40
1
 10
55.176358
 20
80.739268
 30
0.0
 10
57.971498
 20
80.739268
 30
0.0
 10
60.222198
 20
78.454453
 30
0.0
 10
60.222198
 20
75.653736
 30
0.0
  0
SPLINE
  5
116
100
AcDbEntity
  8
0
 62
7
100
AcDbSpline
 70
8
 71
3
 72
8
 73
4
 74
0
 40
0
 40
0
 40
0
 40
0
 40
1
 40
1
 40
1
 40
1
 10
60.222198
 20
75.653736
 30
0.0
 10
60.222198
 20
72.852977
 30
0.0
 10
57.971498
 20
70.593294
 30
0.0
 10
55.176358
 20
70.593294
 30
0.0
  0
SPLINE
  5
117
100
AcDbEntity
  8
0
 62
7
100
AcDbSpline
 70
8
 71
3
 72
8
 73
4
 74
0
 40
0
 40
0
 40
0
 40
0
 40
1
 40
1
 40
1
 40
1
 10
55.176358
 20
70.593294
 30
0.0
 10
52.978708
 20
70.593294
 30
0.0
 10
51.144763
 20
72.016106
 30
0.0
 10
50.444891
 20
73.978076
 30
0.0
  0
LWPOLYLINE
  5
118
100
AcDbEntity
  8
0
 62
7
100
AcDbPolyline
 90
8
 70
0
 10
50.444891
 20
121.331490
 30
0.0
 10
26.693812
 20
121.331490
 30
0.0
 10
26.693812
 20
104.424330
 30
0.0
 10
35.706598
 20
104.424330
 30
0.0
 10
38.543814
 20
104.424330
 30
0.0
 10
39.291347
 20
104.424330
 30
0.0
 10
39.291347
 20
77.346147
 30
0.0
 10
50.444891
 20
77.346147
 30
0.0
  0
SPLINE
  5
119
100
AcDbEntity
  8
0
 62
7
100
AcDbSpline
 70
8
 71
3
 72
8
 73
4
 74
0
 40
0
 40
0
 40
0
 40
0
 40
1
 40
1
 40
1
 40
1
 10
20.271802
 20
73.978076
 30
0.0
 10
19.571815
 20
72.016335
 30
0.0
 10
17.754778
 20
70.593294
 30
0.0
 10
15.557322
 20
70.593294
 30
0.0
  0
SPLINE
  5
11a
100
AcDbEntity
  8
0
 62
7
100
AcDbSpline
 70
8
 71
3
 72
8
 73
4
 74
0
 40
0
 40
0
 40
0
 40
0
 40
1
 40
1
 40
1
 40
1
 10
15.557322
 20
70.593294
 30
0.0
 10
12.762182
 20
70.593294
 30
0.0
 10
10.494499
 20
72.852977
 30
0.0
 10
10.494499
 20
75.653736
 30
0.0
  0
SPLINE
  5
11b
100
AcDbEntity
  8
0
 62
7
100
AcDbSpline
 70
8
 71
3
 72
8
 73
4
 74
0
 40
0
 40
0
 40
0
 40
0
 40
1
 40
1
 40
1
 40
1
 10
10.494499
 20
75.653736
 30
0.0
 10
10.494499
 20
78.454453
 30
0.0
 10
12.762182
 20
80.739268
 30
0.0
 10
15.557322
 20
80.739268
 30
0.0
  0
SPLINE
  5
11c
100
AcDbEntity
  8
0
 62
7
100
AcDbSpline
 70
8
 71
3
 72
8
 73
4
 74
0
 40
0
 40
0
 40
0
 40
0
 40
1
 40
1
 40
1
 40
1
 10
15.557322
 20
80.739268
 30
0.0
 10
17.753926
 20
80.739268
 30
0.0
 10
19.571197
 20
79.306702
 30
0.0
 10
20.271802
 20
77.346147
 30
0.0
  0
LWPOLYLINE
  5
11d
100
AcDbEntity
  8
0
 62
7
100
AcDbPolyline
 90
2
 70
0
 10
50.444891
 20
73.978076
 30
0.0
 10
20.271802
 20
73.978076
 30
0.0
  0
SPLINE
  5
11e
100
AcDbEntity
  8
0
 62
7
100
AcDbSpline
 70
8
 71
3
 72
8
 73
4
 74
0
 40
0
 40
0
 40
0
 40
0
 40
1
 40
1
 40
1
 40
1
 10
3.384485
 20
101.031209
 30
0.0
 10
3.358814
 20
100.125874
 30
0.0
 10
3.325001
 20
99.219777
 30
0.0
 10
3.325001
 20
98.308281
 30
0.0
  0
SPLINE
  5
11f
100
AcDbEntity
  8
0
 62
7
100
AcDbSpline
 70
8
 71
3
 72
8
 73
4
 74
0
 40
0
 40
0
 40
0
 40
0
 40
1
 40
1
 40
1
 40
1
 10
3.325001
 20
98.308281
 30
0.0
 10
3.325001
 20
51.092405
 30
0.0
 10
37.913237
 20
12.009732
 30
0.0
 10
83.106819
 20
4.707393
 30
0.0
  0
SPLINE
  5
120
100
AcDbEntity
  8
0
 62
7
100
AcDbSpline
 70
8
 71
3
 72
8
 73
4
 74
0
 40
0
 40
0
 40
0
 40
0
 40
1
 40
1
 40
1
 40
1
 10
83.106819
 20
4.707393
 30
0.0
 10
87.966132
 20
3.904022
 30
0.0
 10
92.911075
 20
3.352125
 30
0.0
 10
97.989452
 20
3.325010
 30
0.0
  0
LWPOLYLINE
  5
121
100
AcDbEntity
  8
0
 62
7
100
AcDbPolyline
 90
6
 70
0
 10
20.271802
 20
77.346147
 30
0.0
 10
35.706598
 20
77.346147
 30
0.0
 10
35.706598
 20
101.031209
 30
0.0
 10
26.693812
 20
101.031209
 30
0.0
 10
23.092075
 20
101.031209
 30
0.0
 10
3.384485
 20
101.031209
 30
0.0
  0
SPLINE
  5
122
100
AcDbEntity
  8
0
 62
7
100
AcDbSpline
 70
8
 71
3
 72
8
 73
4
 74
0
 40
0
 40
0
 40
0
 40
0
 40
1
 40
1
 40
1
 40
1
 10
97.989452
 20
3.392091
 30
0.0
 10
98.102953
 20
3.391676
 30
0.0
 10
98.207153
 20
3.375304
 30
0.0
 10
98.320696
 20
3.375304
 30
0.0
  0
SPLINE
  5
123
100
AcDbEntity
  8
0
 62
7
100
AcDbSpline
 70
8
 71
3
 72
8
 73
4
 74
0
 40
0
 40
0
 40
0
 40
0
 40
1
 40
1
 40
1
 40
1
 10
98.320696
 20
3.375304
 30
0.0
 10
150.760475
 20
3.375304
 30
0.0
 10
193.324999
 20
45.901695
 30
0.0
 10
193.324999
 20
98.308281
 30
0.0
  0
SPLINE
  5
124
100
AcDbEntity
  8
0
 62
7
100
AcDbSpline
 70
8
 71
3
 72
8
 73
4
 74
0
 40
0
 40
0
 40
0
 40
0
 40
1
 40
1
 40
1
 40
1
 10
193.324999
 20
98.308281
 30
0.0
 10
193.324999
 20
150.714874
 30
0.0
 10
150.760475
 20
193.257962
 30
0.0
 10
98.320696
 20
193.257962
 30
0.0
  0
SPLINE
  5
125
100
AcDbEntity
  8
0
 62
7
100
AcDbSpline
 70
8
 71
3
 72
8
 73
4
 74
0
 40
0
 40
0
 40
0
 40
0
 40
1
 40
1
 40
1
 40
1
 10
98.320696
 20
193.257962
 30
0.0
 10
98.207153
 20
193.257962
 30
0.0
 10
98.102953
 20
193.241593
 30
0.0
 10
97.989452
 20
193.241249
 30
0.0
  0
LWPOLYLINE
  5
126
100
AcDbEntity
  8
0
 62
7
100
AcDbPolyline
 90
2
 70
0
 10
97.989452
 20
3.325010
 30
0.0
 10
97.989452
 20
3.392091
 30
0.0
  0
SPLINE
  5
127
100
AcDbEntity
  8
0
 62
7
100
AcDbSpline
 70
8
 71
3
 72
8
 73
4
 74
0
 40
0
 40
0
 40
0
 40
0
 40
1
 40
1
 40
1
 40
1
 10
98.320696
 20
190.208307
 30
0.0
 10
149.226561
 20
190.208307
 30
0.0
 10
190.547267
 20
148.997678
 30
0.0
 10
190.547267
 20
98.207695
 30
0.0
  0
SPLINE
  5
128
100
AcDbEntity
  8
0
 62
7
100
AcDbSpline
 70
8
 71
3
 72
8
 73
4
 74
0
 40
0
 40
0
 40
0
 40
0
 40
1
 40
1
 40
1
 40
1
 10
190.547267
 20
98.207695
 30
0.0
 10
190.547190
 20
47.417790
 30
0.0
 10
149.226561
 20
6.207156
 30
0.0
 10
98.320696
 20
6.207156
 30
0.0
  0
SPLINE
  5
129
100
AcDbEntity
  8
0
 62
7
100
AcDbSpline
 70
8
 71
3
 72
8
 73
4
 74
0
 40
0
 40
0
 40
0
 40
0
 40
1
 40
1
 40
1
 40
1
 10
98.320696
 20
6.207156
 30
0.0
 10
98.207113
 20
6.207080
 30
0.0
 10
98.102993
 20
6.223485
 30
0.0
 10
97.989452
 20
6.223830
 30
0.0
  0
LWPOLYLINE
  5
12a
100
AcDbEntity
  8
0
 62
7
100
AcDbPolyline
 90
3
 70
0
 10
97.989452
 20
193.241249
 30
0.0
 10
97.989452
 20
193.325009
 30
0.0
 10
97.989452
 20
193.325009
 30
0.0
  0
SPLINE
  5
12b
100
AcDbEntity
  8
0
 62
7
100
AcDbSpline
 70
8
 71
3
 72
8
 73
4
 74
0
 40
0
 40
0
 40
0
 40
0
 40
1
 40
1
 40
1
 40
1
 10
97.989452
 20
127.045376
 30
0.0
 10
87.706242
 20
127.247740
 30
0.0
 10
79.411630
 20
135.625800
 30
0.0
 10
79.411630
 20
145.971647
 30
0.0
  0
SPLINE
  5
12c
100
AcDbEntity
  8
0
 62
7
100
AcDbSpline
 70
8
 71
3
 72
8
 73
4
 74
0
 40
0
 40
0
 40
0
 40
0
 40
1
 40
1
 40
1
 40
1
 10
79.411630
 20
145.971647
 30
0.0
 10
79.411630
 20
156.317456
 30
0.0
 10
87.706242
 20
164.720803
 30
0.0
 10
97.989452
 20
164.923049
 30
0.0
  0
LWPOLYLINE
  5
12d
100
AcDbEntity
  8
0
 62
7
100
AcDbPolyline
 90
6
 70
0
 10
97.989452
 20
6.223830
 30
0.0
 10
97.989452
 20
31.609719
 30
0.0
 10
79.275709
 20
31.609719
 30
0.0
 10
79.275709
 20
117.393703
 30
0.0
 10
97.989452
 20
117.393703
 30
0.0
 10
97.989452
 20
127.045376
 30
0.0
  0
SPLINE
  5
12e
100
AcDbEntity
  8
0
 62
7
100
AcDbSpline
 70
8
 71
3
 72
8
 73
4
 74
0
 40
0
 40
0
 40
0
 40
0
 40
1
 40
1
 40
1
 40
1
 10
97.989452
 20
190.191559
 30
0.0
 10
98.102993
 20
190.191976
 30
0.0
 10
98.207113
 20
190.208307
 30
0.0
 10
98.320696
 20
190.208307
 30
0.0
  0
LWPOLYLINE
  5
12f
100
AcDbEntity
  8
0
 62
7
100
AcDbPolyline
 90
2
 70
0
 10
97.989452
 20
164.923049
 30
0.0
 10
97.989452
 20
190.191559
 30
0.0
  0
LWPOLYLINE
  5
130
100
AcDbEntity
  8
0
 62
7
100
AcDbPolyline
 90
2
 70
0
 10
98.320696
 20
190.208307
 30
0.0
 10
98.320696
 20
190.208307
 30
0.0
  0
SPLINE
  5
131
100
AcDbEntity
  8
0
 62
7
100
AcDbSpline
 70
8
 71
3
 72
8
 73
4
 74
0
 40
0
 40
0
 40
0
 40
0
 40
1
 40
1
 40
1
 40
1
 10
97.989452
 20
162.267169
 30
0.0
 10
98.143983
 20
162.271569
 30
0.0
 10
98.284053
 20
162.317427
 30
0.0
 10
98.439630
 20
162.317427
 30
0.0
  0
SPLINE
  5
132
100
AcDbEntity
  8
0
 62
7
100
AcDbSpline
 70
8
 71
3
 72
8
 73
4
 74
0
 40
0
 40
0
 40
0
 40
0
 40
1
 40
1
 40
1
 40
1
 10
98.439630
 20
162.317427
 30
0.0
 10
107.330923
 20
162.317427
 30
0.0
 10
114.545522
 20
155.061593
 30
0.0
 10
114.545522
 20
146.122455
 30
0.0
  0
SPLINE
  5
133
100
AcDbEntity
  8
0
 62
7
100
AcDbSpline
 70
8
 71
3
 72
8
 73
4
 74
0
 40
0
 40
0
 40
0
 40
0
 40
1
 40
1
 40
1
 40
1
 10
114.545522
 20
146.122455
 30
0.0
 10
114.545522
 20
137.183314
 30
0.0
 10
107.330923
 20
129.919106
 30
0.0
 10
98.439630
 20
129.919106
 30
0.0
  0
SPLINE
  5
134
100
AcDbEntity
  8
0
 62
7
100
AcDbSpline
 70
8
 71
3
 72
8
 73
4
 74
0
 40
0
 40
0
 40
0
 40
0
 40
1
 40
1
 40
1
 40
1
 10
98.439630
 20
129.919106
 30
0.0
 10
98.284053
 20
129.919106
 30
0.0
 10
98.143983
 20
129.964925
 30
0.0
 10
97.989452
 20
129.969322
 30
0.0
  0
LWPOLYLINE
  5
135
100
AcDbEntity
  8
0
 62
7
100
AcDbPolyline
 90
2
 70
0
 10
97.989452
 20
164.923049
 30
0.0
 10
97.989452
 20
162.267169
 30
0.0
  0
SPLINE
  5
136
100
AcDbEntity
  8
0
 62
7
100
AcDbSpline
 70
8
 71
3
 72
8
 73
4
 74
0
 40
0
 40
0
 40
0
 40
0
 40
1
 40
1
 40
1
 40
1
 10
97.989452
 20
127.045376
 30
0.0
 10
98.115402
 20
127.042889
 30
0.0
 10
98.228212
 20
127.011834
 30
0.0
 10
98.354704
 20
127.011834
 30
0.0
  0
SPLINE
  5
137
100
AcDbEntity
  8
0
 62
7
100
AcDbSpline
 70
8
 71
3
 72
8
 73
4
 74
0
 40
0
 40
0
 40
0
 40
0
 40
1
 40
1
 40
1
 40
1
 10
98.354704
 20
127.011834
 30
0.0
 10
108.812491
 20
127.011834
 30
0.0
 10
117.306310
 20
135.499049
 30
0.0
 10
117.306310
 20
145.971647
 30
0.0
  0
SPLINE
  5
138
100
AcDbEntity
  8
0
 62
7
100
AcDbSpline
 70
8
 71
3
 72
8
 73
4
 74
0
 40
0
 40
0
 40
0
 40
0
 40
1
 40
1
 40
1
 40
1
 10
117.306310
 20
145.971647
 30
0.0
 10
117.306310
 20
156.444208
 30
0.0
 10
108.812491
 20
164.956592
 30
0.0
 10
98.354704
 20
164.956592
 30
0.0
  0
SPLINE
  5
139
100
AcDbEntity
  8
0
 62
7
100
AcDbSpline
 70
8
 71
3
 72
8
 73
4
 74
0
 40
0
 40
0
 40
0
 40
0
 40
1
 40
1
 40
1
 40
1
 10
98.354704
 20
164.956592
 30
0.0
 10
98.228212
 20
164.956592
 30
0.0
 10
98.115402
 20
164.925536
 30
0.0
 10
97.989452
 20
164.923049
 30
0.0
  0
LWPOLYLINE
  5
13a
100
AcDbEntity
  8
0
 62
7
100
AcDbPolyline
 90
2
 70
0
 10
97.989452
 20
129.969322
 30
0.0
 10
97.989452
 20
127.045376
 30
0.0
  0
LWPOLYLINE
  5
13b
100
AcDbEntity
  8
0
 62
7
100
AcDbPolyline
 90
2
 70
0
 10
97.989452
 20
164.923049
 30
0.0
 10
97.989452
 20
164.923049
 30
0.0
  0
SPLINE
  5
13c
100
AcDbEntity
  8
0
 62
7
100
AcDbSpline
 70
8
 71
3
 72
8
 73
4
 74
0
 40
0
 40
0
 40
0
 40
0
 40
1
 40
1
 40
1
 40
1
 10
97.989452
 20
162.267169
 30
0.0
 10
89.312984
 20
162.019485
 30
0.0
 10
82.333809
 20
154.905129
 30
0.0
 10
82.333809
 20
146.122455
 30
0.0
  0
SPLINE
  5
13d
100
AcDbEntity
  8
0
 62
7
100
AcDbSpline
 70
8
 71
3
 72
8
 73
4
 74
0
 40
0
 40
0
 40
0
 40
0
 40
1
 40
1
 40
1
 40
1
 10
82.333809
 20
146.122455
 30
0.0
 10
82.333809
 20
137.339781
 30
0.0
 10
89.313024
 20
130.217240
 30
0.0
 10
97.989452
 20
129.969322
 30
0.0
  0
LWPOLYLINE
  5
13e
100
AcDbEntity
  8
0
 62
7
100
AcDbPolyline
 90
2
 70
0
 10
97.989452
 20
129.969322
 30
0.0
 10
97.989452
 20
162.267169
 30
0.0
  0
LWPOLYLINE
  5
13f
100
AcDbEntity
  8
0
 62
7
100
AcDbPolyline
 90
2
 70
0
 10
97.989452
 20
129.969322
 30
0.0
 10
97.989452
 20
129.969322
 30
0.0
  0
LWPOLYLINE
  5
140
100
AcDbEntity
  8
0
 62
7
100
AcDbPolyline
 90
10
 70
0
 10
97.989452
 20
117.393703
 30
0.0
 10
97.989452
 20
114.335735
 30
0.0
 10
113.959428
 20
114.335735
 30
0.0
 10
113.959428
 20
34.667723
 30
0.0
 10
97.989452
 20
34.667723
 30
0.0
 10
97.989452
 20
31.609719
 30
0.0
 10
117.416713
 20
31.609719
 30
0.0
 10
117.416713
 20
117.393703
 30
0.0
 10
97.989452
 20
117.393703
 30
0.0
 10
97.989452
 20
117.393703
 30
0.0
  0
LWPOLYLINE
  5
141
100
AcDbEntity
  8
0
 62
7
100
AcDbPolyline
 90
6
 70
0
 10
97.989452
 20
34.667723
 30
0.0
 10
97.989452
 20
114.335735
 30
0.0
 10
82.758511
 20
114.335735
 30
0.0
 10
82.758511
 20
34.667723
 30
0.0
 10
97.989452
 20
34.667723
 30
0.0
 10
97.989452
 20
34.667723
 30
0.0
  0
ENDSEC
  0
SECTION
  2
OBJECTS
  0
DICTIONARY
  5
C
330
0
100
AcDbDictionary
  3
ACAD_GROUP
350
D
  3
ACAD_MLINESTYLE
350
17
  0
DICTIONARY
  5
D
330
C
100
AcDbDictionary
  0
DICTIONARY
  5
1A
330
C
100
AcDbDictionary
  0
DICTIONARY
  5
17
330
C
100
AcDbDictionary
  3
STANDARD
350
18
  0
DICTIONARY
  5
19
330
C
100
AcDbDictionary
  0
ENDSEC
  0
EOF
