<?xml version="1.0" encoding="UTF-8" standalone="no"?>
<!-- Created with Sodipodi ("http://www.sodipodi.com/") -->

<svg
   xmlns:dc="http://purl.org/dc/elements/1.1/"
   xmlns:cc="http://creativecommons.org/ns#"
   xmlns:rdf="http://www.w3.org/1999/02/22-rdf-syntax-ns#"
   xmlns:svg="http://www.w3.org/2000/svg"
   xmlns="http://www.w3.org/2000/svg"
   xmlns:sodipodi="http://sodipodi.sourceforge.net/DTD/sodipodi-0.dtd"
   xmlns:inkscape="http://www.inkscape.org/namespaces/inkscape"
   id="svg602"
   sodipodi:version="0.32"
   width="696.79138"
   height="696.79138"
   xml:space="preserve"
   sodipodi:docname="LaborLogoOnly.svg"
   inkscape:version="0.48.0 r9654"
   inkscape:output_extension="org.inkscape.output.svg.inkscape"
   version="1.0">
  <metadata
   id="metadata26">
    <rdf:RDF>
      <cc:Work
   rdf:about="">
        <dc:format>image/svg+xml</dc:format>


        <dc:type
   rdf:resource="http://purl.org/dc/dcmitype/StillImage" />


      <dc:title></dc:title></cc:Work>


    </rdf:RDF>


  </metadata>


  <defs
   id="defs604"><inkscape:perspective
     sodipodi:type="inkscape:persp3d"
     inkscape:vp_x="0 : 526.25 : 1"
     inkscape:vp_y="0 : 1000 : 0"
     inkscape:vp_z="743.75 : 526.25 : 1"
     inkscape:persp3d-origin="371.875 : 350.83333 : 1"
     id="perspective9" /></defs>


  <sodipodi:namedview
   id="base"
   showgrid="false"
   inkscape:grid-bbox="true"
   showguides="true"
   inkscape:guide-bbox="true"
   showborder="true"
   inkscape:grid-points="false"
   inkscape:guide-points="true"
   inkscape:zoom="0.5"
   inkscape:cx="5.329595"
   inkscape:cy="508.42359"
   inkscape:window-width="1680"
   inkscape:window-height="1010"
   inkscape:window-x="-2"
   inkscape:window-y="-2"
   inkscape:current-layer="svg602"
   pagecolor="#000000"
   inkscape:pageopacity="0.0000000"
   gridtolerance="5.0000000px"
   inkscape:window-maximized="0"><inkscape:grid
     id="GridFromPre046Settings"
     type="xygrid"
     originx="0px"
     originy="0px"
     spacingx="5.0000000mm"
     spacingy="5.0000000mm"
     color="#0000ff"
     empcolor="#0000ff"
     opacity="0.2"
     empopacity="0.4"
     empspacing="10"
     units="mm"
     visible="true"
     enabled="true" /></sodipodi:namedview>


  
  
<path
   sodipodi:type="arc"
   style="opacity:1;fill:#ffffff;fill-opacity:1;stroke:none;stroke-width:21.25;stroke-linecap:butt;stroke-miterlimit:4;stroke-dasharray:none;stroke-opacity:1"
   id="path3174"
   sodipodi:cx="-326"
   sodipodi:cy="191.5"
   sodipodi:rx="159"
   sodipodi:ry="159"
   d="M -167,191.5 A 159,159 0 1 1 -485,191.5 A 159,159 0 1 1 -167,191.5 z"
   transform="matrix(2.1911678,0,0,2.1911678,1062.7164,-71.212954)" />














<path
   style="fill:#000000;fill-opacity:1;fill-rule:evenodd;stroke:none"
   d="m 260.12507,23.55908 c -22.00455,6.022091 -42.88062,14.179517 -62.50347,24.09301 -3.81233,1.926023 -7.35362,4.19359 -11.06889,6.25463 C 59.908585,123.40132 -10.836029,268.67926 18.41366,414.43994 L 85.312043,396.51457 66.702834,327.06406 79.030038,323.761 115.98253,313.85961 105.49466,274.71833 c -7.655009,-0.29704 -14.5589,-5.25829 -16.648561,-13.05701 -2.568471,-9.58566 3.0625,-19.38382 12.628811,-21.9471 9.56658,-2.56336 19.42929,3.08327 21.99777,12.66894 1.86041,6.94314 -0.71338,13.93268 -5.85057,18.28663 l 10.68763,39.88675 32.01007,-8.57707 c 0.61815,-7.33341 5.60335,-13.85635 13.10505,-15.86642 9.56657,-2.56336 19.34209,3.10664 21.91052,12.69216 2.56847,9.58568 -3.04701,19.44112 -12.61358,22.00447 -7.51883,2.01467 -15.10217,-1.17688 -19.29792,-7.24567 l -81.289774,21.78153 15.50514,57.86597 30.846904,-8.2654 9.71058,-2.60194 2.55849,-0.68555 24.83273,92.67703 38.17381,-10.22864 c 0.59929,-7.35333 5.56321,-13.93765 13.08203,-15.95231 9.56657,-2.56336 19.3651,3.19252 21.93357,12.77818 2.5685,9.5858 -3.06238,19.38379 -12.62895,21.94714 -7.52161,2.01541 -15.10325,-1.1724 -19.29788,-7.24555 l -103.26956,27.671 c -0.5967,7.35614 -5.5106,13.89296 -13.03155,15.90819 -9.566568,2.56336 -19.400178,-3.09093 -21.968685,-12.67673 -2.568468,-9.58566 3.097495,-19.48524 12.664063,-22.04859 7.518033,-2.01445 15.051545,1.22203 19.247392,7.28967 l 52.8267,-14.15487 -21.72099,-81.06383 -30.84691,8.2654 -12.3272,3.30307 -67.450641,18.07334 c 0.7424,3.12212 1.457632,6.25431 2.293542,9.37397 43.300517,161.59973 197.522989,263.64296 358.898069,247.18982 17.3681,-1.70676 34.79865,-4.35274 52.20463,-8.91719 l -0.0615,-0.22959 c 0.38885,-0.10267 0.76049,-0.14219 1.1491,-0.24632 C 614.93588,625.28058 721.61612,440.69608 673.55533,261.33077 625.49454,81.965446 440.79918,-24.606455 261.32027,23.484774 c -0.38861,0.104128 -0.73023,0.255712 -1.11838,0.36098 l -0.0768,-0.286674 z m 3.99196,10.363358 C 438.34601,-12.762076 617.56234,90.39006 664.14059,264.22243 710.7185,438.0546 607.08893,616.99508 432.85995,663.67959 c -0.38867,0.10443 -0.76008,0.14377 -1.149,0.24671 l -23.28077,-86.88502 -64.04913,17.16191 -78.67038,-293.60185 64.04913,-17.16191 -8.85131,-33.03355 c -35.38061,8.73787 -71.45283,-12.32985 -80.94075,-47.73925 -9.48788,-35.40928 11.19452,-71.77713 46.20407,-81.89981 L 262.99868,34.283537 c 0.38822,-0.105554 0.7296,-0.256935 1.11835,-0.361099 z m 22.05478,86.844382 2.43564,9.08995 c 0.52486,-0.15678 0.9622,-0.44219 1.49468,-0.58486 30.43109,-8.15399 61.77772,10.0633 69.97558,40.65814 8.19787,30.59485 -9.83279,62.07345 -40.26388,70.22744 -0.53247,0.14267 -1.05389,0.11431 -1.58682,0.24098 l 2.68148,10.00741 c 0.43336,-0.10699 0.84794,-0.10416 1.28086,-0.22016 35.79253,-9.59058 57.07982,-46.42815 47.47566,-82.27137 -9.60413,-35.84309 -46.48133,-57.18787 -82.27386,-47.59729 -0.43293,0.116 -0.79055,0.32575 -1.21934,0.44976 z m 32.0552,119.63165 -29.61956,-110.5417 c -29.46869,8.80469 -46.83101,39.55451 -38.77664,69.61384 8.05437,30.05934 38.47314,48.03628 68.3962,40.92786 z m 11.53279,43.04096 2.80439,10.46611 54.65839,-14.64567 73.06157,272.66949 -54.65839,14.64567 2.80442,10.46625 66.4912,-17.81627 -78.67038,-293.60185 -66.4912,17.81627 z m 75.86596,283.1356 -73.06157,-272.66949 -52.12899,13.96792 73.06157,272.66949 52.12899,-13.96792 z"
   id="path4853"
   inkscape:connector-curvature="0" />








</svg>